<svg xmlns="http://www.w3.org/2000/svg" width="247" height="204" viewBox="0 0 247 204" version="1.1"><path d="" stroke="none" fill="#af5636" fill-rule="evenodd"/><path d="M 31.454 24.259 C 31.188 24.952, 31.097 39.689, 31.250 57.009 C 31.530 88.500, 31.530 88.500, 31.765 56.265 C 32 24.031, 32 24.031, 60.750 23.749 C 89.500 23.468, 89.500 23.468, 60.719 23.234 C 38.330 23.052, 31.830 23.280, 31.454 24.259 M 127.496 80.007 C 126.493 81.629, 129.190 82.117, 137.094 81.746 C 144.500 81.397, 144.500 81.397, 136 81.012 C 127.500 80.627, 127.500 80.627, 136 80 C 144.500 79.373, 144.500 79.373, 136.309 79.186 C 131.677 79.081, 127.848 79.438, 127.496 80.007 M 44.308 107.748 C 51.353 107.920, 62.603 107.919, 69.308 107.747 C 76.014 107.574, 70.250 107.433, 56.500 107.434 C 42.750 107.434, 37.264 107.576, 44.308 107.748" stroke="none" fill="#4b71b6" fill-rule="evenodd"/><path d="M 48 26.030 C 56.500 26.627, 56.500 26.627, 48.500 26.913 C 36.133 27.355, 34.213 28.616, 46 28.555 C 54.906 28.508, 56.463 28.733, 56.255 30.038 C 56.102 30.998, 56.848 31.638, 58.242 31.743 C 59.470 31.836, 59.998 31.594, 59.414 31.206 C 58.831 30.818, 58.039 29.649, 57.654 28.609 C 57.096 27.102, 57.228 26.944, 58.301 27.835 C 59.300 28.664, 59.967 28.636, 60.883 27.726 C 61.861 26.756, 61.983 26.855, 61.471 28.202 C 61.114 29.138, 61.191 30.488, 61.640 31.202 C 62.201 32.092, 62.623 31.557, 62.984 29.500 C 63.472 26.716, 63.833 26.490, 68.005 26.365 C 72.500 26.231, 72.500 26.231, 68 26.965 C 63.500 27.700, 63.500 27.700, 69 27.865 C 73.076 27.988, 74.112 28.293, 73 29.046 C 71.905 29.787, 72.309 29.880, 74.500 29.390 C 78.301 28.540, 78.948 28, 76.167 28 C 74.975 28, 74 27.550, 74 27 C 74 26.450, 75.125 26, 76.500 26 C 77.875 26, 79 26.450, 79 27 C 79 27.550, 80.013 27.968, 81.250 27.930 C 83.390 27.863, 83.402 27.819, 81.500 27.032 C 80.009 26.416, 80.901 26.100, 85 25.794 C 88.025 25.568, 79.025 25.394, 65 25.407 C 50.388 25.421, 43.129 25.687, 48 26.030 M 39.189 41 C 39.341 47.831, 39.449 48.371, 39.739 43.750 C 40.079 38.336, 40.736 37.070, 42.362 38.696 C 43.765 40.098, 45.786 39.750, 45.551 38.146 C 45.418 37.241, 44.902 36.493, 44.405 36.485 C 43.907 36.476, 42.868 36.069, 42.095 35.580 C 41.130 34.969, 40.914 35.052, 41.405 35.845 C 41.797 36.480, 41.604 37, 40.976 37 C 40.347 37, 40.032 36.438, 40.274 35.750 C 40.517 35.063, 41.454 34.563, 42.358 34.639 C 43.261 34.715, 44 34.323, 44 33.766 C 44 33.151, 44.541 33.204, 45.383 33.903 C 46.436 34.777, 46.885 34.742, 47.263 33.756 C 47.624 32.815, 46.561 32.466, 43.380 32.480 C 39 32.500, 39 32.500, 39.189 41 M 65 33.417 C 65 34.196, 65.422 34.983, 65.939 35.167 C 66.814 35.478, 67.728 39.209, 67.918 43.250 C 67.967 44.306, 68.793 45, 70 45 C 71.100 45, 72 45.450, 72 46 C 72 47.456, 69.764 47.224, 67.323 45.513 C 65.831 44.469, 65.200 42.962, 65.200 40.447 C 65.200 38.478, 64.930 36.597, 64.600 36.267 C 64.029 35.696, 63.582 40.806, 63.923 44 C 64.040 45.092, 63.858 45.169, 63.254 44.284 C 62.609 43.340, 61.817 43.382, 59.712 44.474 C 56.751 46.010, 56.332 45.463, 58.392 42.750 C 59.788 40.910, 61.564 40.279, 60.500 42 C 60.160 42.550, 60.310 43, 60.834 43 C 63.950 43, 62.349 40.396, 59.139 40.243 C 54.390 40.017, 50.774 40.826, 51.474 41.957 C 51.779 42.452, 51.063 43.163, 49.882 43.537 C 48.192 44.074, 48.029 44.408, 49.118 45.109 C 50.280 45.859, 50.262 46.174, 49 47.094 C 47.747 48.008, 47.802 48.091, 49.332 47.594 C 50.339 47.267, 51.378 47, 51.641 47 C 51.903 47, 51.840 46.550, 51.500 46 C 51.160 45.450, 51.385 45, 52 45 C 52.615 45, 52.896 44.641, 52.625 44.202 C 51.513 42.403, 53.768 40.563, 55.413 41.928 C 56.274 42.642, 56.756 43.585, 56.486 44.023 C 55.818 45.104, 56.998 48, 58.107 48 C 58.598 48, 58.888 47.456, 58.750 46.791 C 58.129 43.787, 66.221 45.677, 67.970 48.944 C 68.940 50.756, 68.783 51, 66.646 51 C 65.008 51, 64.267 50.467, 64.361 49.358 C 64.438 48.454, 63.825 47.520, 63 47.281 C 61.690 46.903, 61.686 46.977, 62.971 47.869 C 65.460 49.599, 63.698 50.036, 51.637 50.682 C 33.089 51.676, 38.061 52.484, 64.001 52.692 C 78.480 52.807, 88 52.510, 88 51.942 C 88 51.424, 84.438 51, 80.083 51 C 74.686 51, 72.006 50.602, 71.662 49.750 C 71.274 48.789, 71.140 48.802, 71.079 49.809 C 71.036 50.529, 70.550 50.840, 70 50.500 C 67.915 49.211, 69.132 48, 72.514 48 C 77.403 48, 82.936 44.549, 82.936 41.500 C 82.936 40.950, 82.299 41.341, 81.521 42.369 C 76.434 49.086, 64.920 40.410, 69.369 33.212 C 69.781 32.545, 69.679 32, 69.142 32 C 68.606 32, 67.940 32.563, 67.662 33.250 C 67.259 34.250, 67.142 34.250, 67.079 33.250 C 66.969 31.514, 65 31.671, 65 33.417 M 39.175 76.667 C 39.041 92.816, 39.296 97.943, 40.250 98.297 C 40.953 98.558, 40.296 99.241, 38.750 99.856 C 35.316 101.223, 35.162 102.393, 38.500 101.755 C 39.875 101.492, 41 101.665, 41 102.139 C 41 102.612, 41.505 103, 42.122 103 C 42.913 103, 42.887 102.569, 42.036 101.544 C 41.372 100.743, 41.112 99.627, 41.460 99.064 C 41.808 98.502, 41.577 97.078, 40.946 95.900 C 40.149 94.411, 40.135 93.966, 40.900 94.438 C 41.527 94.826, 42 94.422, 42 93.500 C 42 92.610, 41.550 92.160, 41 92.500 C 40.450 92.840, 40 92.716, 40 92.226 C 40 90.545, 41.316 90.017, 42.681 91.150 C 43.760 92.045, 43.914 91.939, 43.416 90.641 C 43.069 89.739, 43.236 89, 43.786 89 C 45.475 89, 45.963 91.786, 44.489 93.009 C 42.855 94.365, 43.074 100.474, 44.819 102.219 C 45.681 103.081, 46 103.091, 46 102.259 C 46 101.631, 45.550 100.840, 45 100.500 C 44.450 100.160, 44.014 99.121, 44.032 98.191 C 44.060 96.712, 44.247 96.743, 45.532 98.441 C 46.339 99.509, 47 99.921, 47 99.357 C 47 98.675, 49.081 98.616, 53.207 99.180 C 56.621 99.647, 59.883 99.857, 60.457 99.648 C 61.031 99.438, 58.800 98.950, 55.500 98.563 C 46.245 97.478, 41.513 95.168, 45.449 93.658 C 46.418 93.286, 46.714 93.582, 46.342 94.551 C 46.036 95.348, 46.266 96, 46.853 96 C 47.439 96, 47.825 94.694, 47.710 93.097 C 47.594 91.501, 47.086 90.450, 46.580 90.761 C 46.074 91.073, 45.924 90.640, 46.247 89.799 C 46.702 88.613, 46.123 88.296, 43.667 88.385 C 40.500 88.500, 40.500 88.500, 40.332 77.742 C 40.240 71.825, 40.481 67.179, 40.868 67.418 C 41.255 67.658, 41.571 66.986, 41.571 65.927 C 41.571 64.867, 41.244 64, 40.843 64 C 40.443 64, 39.943 62.087, 39.732 59.750 C 39.522 57.413, 39.271 65.025, 39.175 76.667 M 56.462 68.190 C 56.462 71.463, 56.724 71.905, 58.356 71.387 C 59.667 70.971, 60.023 71.153, 59.512 71.980 C 59.106 72.637, 57.847 72.932, 56.714 72.635 C 55.331 72.274, 53.550 73.066, 51.292 75.048 C 48.682 77.340, 48.330 78.016, 49.715 78.070 C 51.281 78.132, 51.255 78.246, 49.500 79 C 47.843 79.712, 48.079 79.871, 50.872 79.930 C 53.760 79.990, 54.066 79.784, 53 78.500 C 51.982 77.274, 52.045 77, 53.346 77 C 54.350 77, 54.725 76.446, 54.362 75.500 C 54.045 74.675, 54.236 74, 54.786 74 C 55.336 74, 56.045 74.675, 56.362 75.500 C 56.678 76.325, 57.851 77, 58.969 77 C 60.086 77, 61 77.388, 61 77.862 C 61 78.337, 59.873 78.601, 58.495 78.450 C 57.055 78.292, 56.248 78.592, 56.596 79.156 C 56.930 79.695, 57.832 79.895, 58.601 79.600 C 59.371 79.304, 60 79.446, 60 79.915 C 60 80.383, 59.100 81.002, 58 81.290 C 55.920 81.834, 55.015 87, 57 87 C 57.550 87, 58 86.325, 58 85.500 C 58 84.675, 58.702 84, 59.559 84 C 60.416 84, 60.866 84.408, 60.558 84.907 C 60.249 85.405, 60.898 85.578, 61.999 85.290 C 63.099 85.002, 64 84.355, 64 83.852 C 64 82.290, 61.257 81.792, 59.078 82.958 C 57.935 83.570, 57 83.653, 57 83.144 C 57 82.634, 58.178 81.921, 59.618 81.560 C 61.058 81.198, 61.956 80.623, 61.614 80.281 C 61.273 79.939, 61.705 78.573, 62.575 77.245 C 64.017 75.044, 64.017 74.676, 62.576 73.084 C 61.707 72.124, 61.334 70.965, 61.748 70.509 C 62.162 70.052, 61.985 69.974, 61.355 70.334 C 60.725 70.694, 59.969 70.360, 59.674 69.593 C 59.133 68.182, 60.604 67.995, 62.569 69.225 C 63.268 69.663, 63.489 68.875, 63.206 66.947 C 62.706 63.546, 61 62.942, 61 66.167 C 61 67.358, 60.704 68.037, 60.342 67.675 C 59.980 67.313, 59.080 67.519, 58.342 68.131 C 56.443 69.707, 56.588 67.555, 58.510 65.633 C 59.857 64.286, 59.828 64.137, 58.241 64.257 C 56.871 64.360, 56.462 65.265, 56.462 68.190 M 74.750 64.685 C 75.438 64.950, 76.036 65.917, 76.079 66.833 C 76.128 67.873, 76.348 68.030, 76.662 67.250 C 77.503 65.167, 79.182 65.852, 78.500 68 C 77.835 70.094, 80.291 70.956, 81.473 69.044 C 81.798 68.518, 82.722 68.340, 83.526 68.648 C 84.331 68.957, 84.735 69.620, 84.425 70.121 C 84.115 70.622, 83.373 70.731, 82.776 70.362 C 82.179 69.993, 81.966 70.137, 82.303 70.681 C 83.267 72.241, 87.306 71.521, 87.567 69.743 C 87.726 68.664, 87.261 68.306, 86.151 68.651 C 84.879 69.046, 84.946 68.800, 86.446 67.578 C 88.063 66.261, 88.165 65.781, 87.050 64.746 C 85.964 63.739, 85.862 63.772, 86.517 64.920 C 87.131 65.994, 86.896 66.174, 85.553 65.659 C 84.233 65.152, 83.926 65.365, 84.357 66.489 C 85.158 68.575, 83.353 68.394, 81.974 66.250 C 80.942 64.645, 80.893 64.642, 81.381 66.218 C 81.673 67.163, 81.413 68.245, 80.802 68.622 C 80.191 69, 79.956 68.881, 80.280 68.357 C 81.305 66.698, 79.294 64.699, 76.345 64.446 C 74.780 64.312, 74.063 64.419, 74.750 64.685 M 72.475 67.041 C 72.110 67.631, 72.110 69.302, 72.475 70.755 C 72.962 72.697, 73.359 73.038, 73.974 72.042 C 74.510 71.175, 74.774 72.004, 74.707 74.344 C 74.643 76.627, 74.115 78, 73.302 78 C 72.586 78, 72 78.450, 72 79 C 72 81.832, 75.509 78.895, 76.181 75.500 C 76.407 74.355, 77.308 73.559, 78.288 73.639 C 80.927 73.853, 80.313 72.117, 77.500 71.411 C 75.971 71.027, 75 70.071, 75 68.951 C 75 66.749, 73.402 65.540, 72.475 67.041 M 72.871 88.250 C 71.892 90.149, 72.666 93.684, 73.955 93.203 C 75.225 92.728, 75.281 92.896, 74.267 94.144 C 72.877 95.857, 75.331 96.150, 77.879 94.575 C 78.687 94.076, 79.523 94.228, 79.973 94.956 C 80.517 95.836, 80.897 95.712, 81.361 94.502 C 82.350 91.925, 81.978 90.250, 80.916 92.500 C 80.115 94.197, 80.031 94.074, 80.359 91.692 C 80.639 89.653, 80.378 89.025, 79.404 89.398 C 78.667 89.681, 77.798 89.482, 77.473 88.956 C 76.961 88.128, 73.229 87.555, 72.871 88.250 M 87 121.852 C 87 122.321, 98.025 122.721, 111.500 122.741 C 125.142 122.761, 136 122.383, 136 121.888 C 136 121.395, 125.115 121, 111.500 121 C 98.025 121, 87 121.383, 87 121.852" stroke="none" fill="#001030" fill-rule="evenodd"/><path d="M 48 26.030 C 56.500 26.627, 56.500 26.627, 48.500 26.913 C 36.133 27.355, 34.213 28.616, 46 28.555 C 54.906 28.508, 56.463 28.733, 56.255 30.038 C 56.102 30.998, 56.848 31.638, 58.242 31.743 C 59.470 31.836, 59.998 31.594, 59.414 31.206 C 58.831 30.818, 58.039 29.649, 57.654 28.609 C 57.096 27.102, 57.228 26.944, 58.301 27.835 C 59.300 28.664, 59.967 28.636, 60.883 27.726 C 61.861 26.756, 61.983 26.855, 61.471 28.202 C 61.114 29.138, 61.191 30.488, 61.640 31.202 C 62.201 32.092, 62.623 31.557, 62.984 29.500 C 63.472 26.716, 63.833 26.490, 68.005 26.365 C 72.500 26.231, 72.500 26.231, 68 26.965 C 63.500 27.700, 63.500 27.700, 69 27.865 C 73.076 27.988, 74.112 28.293, 73 29.046 C 71.905 29.787, 72.309 29.880, 74.500 29.390 C 78.301 28.540, 78.948 28, 76.167 28 C 74.975 28, 74 27.550, 74 27 C 74 26.450, 75.125 26, 76.500 26 C 77.875 26, 79 26.450, 79 27 C 79 27.550, 80.013 27.968, 81.250 27.930 C 83.390 27.863, 83.402 27.819, 81.500 27.032 C 80.009 26.416, 80.901 26.100, 85 25.794 C 88.025 25.568, 79.025 25.394, 65 25.407 C 50.388 25.421, 43.129 25.687, 48 26.030 M 39.189 41 C 39.341 47.831, 39.449 48.371, 39.739 43.750 C 40.079 38.336, 40.736 37.070, 42.362 38.696 C 43.765 40.098, 45.786 39.750, 45.551 38.146 C 45.418 37.241, 44.902 36.493, 44.405 36.485 C 43.907 36.476, 42.868 36.069, 42.095 35.580 C 41.130 34.969, 40.914 35.052, 41.405 35.845 C 41.797 36.480, 41.604 37, 40.976 37 C 40.347 37, 40.032 36.438, 40.274 35.750 C 40.517 35.063, 41.454 34.563, 42.358 34.639 C 43.261 34.715, 44 34.323, 44 33.766 C 44 33.151, 44.541 33.204, 45.383 33.903 C 46.436 34.777, 46.885 34.742, 47.263 33.756 C 47.624 32.815, 46.561 32.466, 43.380 32.480 C 39 32.500, 39 32.500, 39.189 41 M 65 33.417 C 65 34.196, 65.422 34.983, 65.939 35.167 C 66.814 35.478, 67.728 39.209, 67.918 43.250 C 67.967 44.306, 68.793 45, 70 45 C 71.100 45, 72 45.450, 72 46 C 72 47.456, 69.764 47.224, 67.323 45.513 C 65.831 44.469, 65.200 42.962, 65.200 40.447 C 65.200 38.478, 64.930 36.597, 64.600 36.267 C 64.029 35.696, 63.582 40.806, 63.923 44 C 64.040 45.092, 63.858 45.169, 63.254 44.284 C 62.609 43.340, 61.817 43.382, 59.712 44.474 C 56.751 46.010, 56.332 45.463, 58.392 42.750 C 59.788 40.910, 61.564 40.279, 60.500 42 C 60.160 42.550, 60.310 43, 60.834 43 C 63.950 43, 62.349 40.396, 59.139 40.243 C 54.390 40.017, 50.774 40.826, 51.474 41.957 C 51.779 42.452, 51.063 43.163, 49.882 43.537 C 48.192 44.074, 48.029 44.408, 49.118 45.109 C 50.280 45.859, 50.262 46.174, 49 47.094 C 47.747 48.008, 47.802 48.091, 49.332 47.594 C 50.339 47.267, 51.378 47, 51.641 47 C 51.903 47, 51.840 46.550, 51.500 46 C 51.160 45.450, 51.385 45, 52 45 C 52.615 45, 52.896 44.641, 52.625 44.202 C 51.513 42.403, 53.768 40.563, 55.413 41.928 C 56.274 42.642, 56.756 43.585, 56.486 44.023 C 55.818 45.104, 56.998 48, 58.107 48 C 58.598 48, 58.888 47.456, 58.750 46.791 C 58.129 43.787, 66.221 45.677, 67.970 48.944 C 68.940 50.756, 68.783 51, 66.646 51 C 65.008 51, 64.267 50.467, 64.361 49.358 C 64.438 48.454, 63.825 47.520, 63 47.281 C 61.690 46.903, 61.686 46.977, 62.971 47.869 C 65.460 49.599, 63.698 50.036, 51.637 50.682 C 33.089 51.676, 38.061 52.484, 64.001 52.692 C 78.480 52.807, 88 52.510, 88 51.942 C 88 51.424, 84.438 51, 80.083 51 C 74.686 51, 72.006 50.602, 71.662 49.750 C 71.274 48.789, 71.140 48.802, 71.079 49.809 C 71.036 50.529, 70.550 50.840, 70 50.500 C 67.915 49.211, 69.132 48, 72.514 48 C 77.403 48, 82.936 44.549, 82.936 41.500 C 82.936 40.950, 82.299 41.341, 81.521 42.369 C 76.434 49.086, 64.920 40.410, 69.369 33.212 C 69.781 32.545, 69.679 32, 69.142 32 C 68.606 32, 67.940 32.563, 67.662 33.250 C 67.259 34.250, 67.142 34.250, 67.079 33.250 C 66.969 31.514, 65 31.671, 65 33.417 M 39.175 76.667 C 39.041 92.816, 39.296 97.943, 40.250 98.297 C 40.953 98.558, 40.296 99.241, 38.750 99.856 C 35.316 101.223, 35.162 102.393, 38.500 101.755 C 39.875 101.492, 41 101.665, 41 102.139 C 41 102.612, 41.505 103, 42.122 103 C 42.913 103, 42.887 102.569, 42.036 101.544 C 41.372 100.743, 41.112 99.627, 41.460 99.064 C 41.808 98.502, 41.577 97.078, 40.946 95.900 C 40.149 94.411, 40.135 93.966, 40.900 94.438 C 41.527 94.826, 42 94.422, 42 93.500 C 42 92.610, 41.550 92.160, 41 92.500 C 40.450 92.840, 40 92.716, 40 92.226 C 40 90.545, 41.316 90.017, 42.681 91.150 C 43.760 92.045, 43.914 91.939, 43.416 90.641 C 43.069 89.739, 43.236 89, 43.786 89 C 45.475 89, 45.963 91.786, 44.489 93.009 C 42.855 94.365, 43.074 100.474, 44.819 102.219 C 45.681 103.081, 46 103.091, 46 102.259 C 46 101.631, 45.550 100.840, 45 100.500 C 44.450 100.160, 44.014 99.121, 44.032 98.191 C 44.060 96.712, 44.247 96.743, 45.532 98.441 C 46.339 99.509, 47 99.921, 47 99.357 C 47 98.675, 49.081 98.616, 53.207 99.180 C 56.621 99.647, 59.883 99.857, 60.457 99.648 C 61.031 99.438, 58.800 98.950, 55.500 98.563 C 46.245 97.478, 41.513 95.168, 45.449 93.658 C 46.418 93.286, 46.714 93.582, 46.342 94.551 C 46.036 95.348, 46.266 96, 46.853 96 C 47.439 96, 47.825 94.694, 47.710 93.097 C 47.594 91.501, 47.086 90.450, 46.580 90.761 C 46.074 91.073, 45.924 90.640, 46.247 89.799 C 46.702 88.613, 46.123 88.296, 43.667 88.385 C 40.500 88.500, 40.500 88.500, 40.332 77.742 C 40.240 71.825, 40.481 67.179, 40.868 67.418 C 41.255 67.658, 41.571 66.986, 41.571 65.927 C 41.571 64.867, 41.244 64, 40.843 64 C 40.443 64, 39.943 62.087, 39.732 59.750 C 39.522 57.413, 39.271 65.025, 39.175 76.667 M 56.462 68.190 C 56.462 71.463, 56.724 71.905, 58.356 71.387 C 59.667 70.971, 60.023 71.153, 59.512 71.980 C 59.106 72.637, 57.847 72.932, 56.714 72.635 C 55.331 72.274, 53.550 73.066, 51.292 75.048 C 48.682 77.340, 48.330 78.016, 49.715 78.070 C 51.281 78.132, 51.255 78.246, 49.500 79 C 47.843 79.712, 48.079 79.871, 50.872 79.930 C 53.760 79.990, 54.066 79.784, 53 78.500 C 51.982 77.274, 52.045 77, 53.346 77 C 54.350 77, 54.725 76.446, 54.362 75.500 C 54.045 74.675, 54.236 74, 54.786 74 C 55.336 74, 56.045 74.675, 56.362 75.500 C 56.678 76.325, 57.851 77, 58.969 77 C 60.086 77, 61 77.388, 61 77.862 C 61 78.337, 59.873 78.601, 58.495 78.450 C 57.055 78.292, 56.248 78.592, 56.596 79.156 C 56.930 79.695, 57.832 79.895, 58.601 79.600 C 59.371 79.304, 60 79.446, 60 79.915 C 60 80.383, 59.100 81.002, 58 81.290 C 55.920 81.834, 55.015 87, 57 87 C 57.550 87, 58 86.325, 58 85.500 C 58 84.675, 58.702 84, 59.559 84 C 60.416 84, 60.866 84.408, 60.558 84.907 C 60.249 85.405, 60.898 85.578, 61.999 85.290 C 63.099 85.002, 64 84.355, 64 83.852 C 64 82.290, 61.257 81.792, 59.078 82.958 C 57.935 83.570, 57 83.653, 57 83.144 C 57 82.634, 58.178 81.921, 59.618 81.560 C 61.058 81.198, 61.956 80.623, 61.614 80.281 C 61.273 79.939, 61.705 78.573, 62.575 77.245 C 64.017 75.044, 64.017 74.676, 62.576 73.084 C 61.707 72.124, 61.334 70.965, 61.748 70.509 C 62.162 70.052, 61.985 69.974, 61.355 70.334 C 60.725 70.694, 59.969 70.360, 59.674 69.593 C 59.133 68.182, 60.604 67.995, 62.569 69.225 C 63.268 69.663, 63.489 68.875, 63.206 66.947 C 62.706 63.546, 61 62.942, 61 66.167 C 61 67.358, 60.704 68.037, 60.342 67.675 C 59.980 67.313, 59.080 67.519, 58.342 68.131 C 56.443 69.707, 56.588 67.555, 58.510 65.633 C 59.857 64.286, 59.828 64.137, 58.241 64.257 C 56.871 64.360, 56.462 65.265, 56.462 68.190 M 74.750 64.685 C 75.438 64.950, 76.036 65.917, 76.079 66.833 C 76.128 67.873, 76.348 68.030, 76.662 67.250 C 77.503 65.167, 79.182 65.852, 78.500 68 C 77.835 70.094, 80.291 70.956, 81.473 69.044 C 81.798 68.518, 82.722 68.340, 83.526 68.648 C 84.331 68.957, 84.735 69.620, 84.425 70.121 C 84.115 70.622, 83.373 70.731, 82.776 70.362 C 82.179 69.993, 81.966 70.137, 82.303 70.681 C 83.267 72.241, 87.306 71.521, 87.567 69.743 C 87.726 68.664, 87.261 68.306, 86.151 68.651 C 84.879 69.046, 84.946 68.800, 86.446 67.578 C 88.063 66.261, 88.165 65.781, 87.050 64.746 C 85.964 63.739, 85.862 63.772, 86.517 64.920 C 87.131 65.994, 86.896 66.174, 85.553 65.659 C 84.233 65.152, 83.926 65.365, 84.357 66.489 C 85.158 68.575, 83.353 68.394, 81.974 66.250 C 80.942 64.645, 80.893 64.642, 81.381 66.218 C 81.673 67.163, 81.413 68.245, 80.802 68.622 C 80.191 69, 79.956 68.881, 80.280 68.357 C 81.305 66.698, 79.294 64.699, 76.345 64.446 C 74.780 64.312, 74.063 64.419, 74.750 64.685 M 72.475 67.041 C 72.110 67.631, 72.110 69.302, 72.475 70.755 C 72.962 72.697, 73.359 73.038, 73.974 72.042 C 74.510 71.175, 74.774 72.004, 74.707 74.344 C 74.643 76.627, 74.115 78, 73.302 78 C 72.586 78, 72 78.450, 72 79 C 72 81.832, 75.509 78.895, 76.181 75.500 C 76.407 74.355, 77.308 73.559, 78.288 73.639 C 80.927 73.853, 80.313 72.117, 77.500 71.411 C 75.971 71.027, 75 70.071, 75 68.951 C 75 66.749, 73.402 65.540, 72.475 67.041 M 72.871 88.250 C 71.892 90.149, 72.666 93.684, 73.955 93.203 C 75.225 92.728, 75.281 92.896, 74.267 94.144 C 72.877 95.857, 75.331 96.150, 77.879 94.575 C 78.687 94.076, 79.523 94.228, 79.973 94.956 C 80.517 95.836, 80.897 95.712, 81.361 94.502 C 82.350 91.925, 81.978 90.250, 80.916 92.500 C 80.115 94.197, 80.031 94.074, 80.359 91.692 C 80.639 89.653, 80.378 89.025, 79.404 89.398 C 78.667 89.681, 77.798 89.482, 77.473 88.956 C 76.961 88.128, 73.229 87.555, 72.871 88.250 M 87 121.852 C 87 122.321, 98.025 122.721, 111.500 122.741 C 125.142 122.761, 136 122.383, 136 121.888 C 136 121.395, 125.115 121, 111.500 121 C 98.025 121, 87 121.383, 87 121.852" stroke="none" fill="#001030" fill-rule="evenodd"/><path d="M 125 103 C 125 103.550, 125.626 104, 126.392 104 C 127.364 104, 127.757 105.207, 127.696 108 C 127.641 110.477, 127.134 112, 126.363 112 C 125.416 112, 125.462 112.658, 126.553 114.750 C 127.342 116.263, 127.990 118.063, 127.994 118.750 C 127.997 119.438, 128.450 120, 129 120 C 129.550 120, 130 119.190, 130 118.200 C 130 117.210, 130.406 115.972, 130.902 115.450 C 132.324 113.951, 130.995 104, 129.373 104 C 128.618 104, 128 103.550, 128 103 C 128 102.450, 127.325 102, 126.500 102 C 125.675 102, 125 102.450, 125 103" stroke="none" fill="#af5441" fill-rule="evenodd"/><path d="" stroke="none" fill="#b05542" fill-rule="evenodd"/><path d="M 112 101.930 C 112 102.442, 113.013 103.056, 114.250 103.294 C 116.500 103.728, 116.500 103.728, 114.250 103.864 C 111.372 104.038, 110.851 107.872, 113.301 110.851 C 113.912 111.594, 114.518 112.925, 114.648 113.808 C 115.121 117.029, 117.309 120.116, 118.164 118.769 C 118.798 117.769, 118.973 117.765, 118.985 118.750 C 118.994 119.539, 120.475 120, 123 120 C 126.333 120, 127 119.667, 127 118 C 127 116.900, 126.550 116, 126 116 C 125.450 116, 125 115.100, 125 114 C 125 112.100, 124.039 111.565, 121.266 111.922 C 120.544 112.014, 120.276 111.443, 120.621 110.546 C 120.945 109.702, 121.581 109.241, 122.036 109.522 C 122.490 109.803, 123.187 109.506, 123.585 108.862 C 124.070 108.077, 123.872 107.961, 122.985 108.510 C 122.010 109.112, 121.837 108.866, 122.330 107.582 C 122.699 106.622, 123 105.423, 123 104.918 C 123 103.015, 124.875 104.093, 125.180 106.172 C 125.356 107.366, 126.027 108.517, 126.671 108.729 C 128.232 109.242, 127.174 105.226, 125.114 102.820 C 123.436 100.861, 112 100.085, 112 101.930" stroke="none" fill="#af5844" fill-rule="evenodd"/><path d="" stroke="none" fill="#1a3756" fill-rule="evenodd"/><path d="M 109.250 100.662 C 107.766 101.261, 107.561 104, 109 104 C 109.550 104, 110 105.125, 110 106.500 C 110 107.875, 110.498 109, 111.107 109 C 111.716 109, 111.939 108.283, 111.603 107.407 C 108.969 100.545, 108.504 100.804, 122.778 101.168 C 129.947 101.351, 135.604 101.162, 135.347 100.750 C 134.837 99.928, 111.267 99.849, 109.250 100.662" stroke="none" fill="#756d6e" fill-rule="evenodd"/><path d="M 39 163.833 C 39 176.343, 39.372 184, 39.980 184 C 41.033 184, 40.655 145.322, 39.592 144.259 C 39.266 143.933, 39 152.742, 39 163.833" stroke="none" fill="#13385a" fill-rule="evenodd"/><path d="M 136.250 61.728 C 145.351 62.016, 155.068 76, 146.167 76 C 145.708 76, 145.333 76.675, 145.333 77.500 C 145.333 78.325, 145.951 79, 146.706 79 C 147.786 79, 148.016 77.139, 147.789 70.250 C 147.500 61.500, 147.500 61.500, 136.500 61.444 C 125.500 61.388, 125.500 61.388, 136.250 61.728 M 96.250 147.745 C 101.062 147.928, 108.937 147.928, 113.750 147.745 C 118.563 147.561, 114.625 147.411, 105 147.411 C 95.375 147.411, 91.438 147.561, 96.250 147.745" stroke="none" fill="#163a5c" fill-rule="evenodd"/><path d="M 95.750 146.744 C 100.287 146.929, 107.713 146.929, 112.250 146.744 C 116.787 146.559, 113.075 146.407, 104 146.407 C 94.925 146.407, 91.213 146.559, 95.750 146.744" stroke="none" fill="#143359" fill-rule="evenodd"/><path d="M 84.354 160 C 84.413 184.500, 84.413 184.500, 84.957 165.500 C 85.255 155.050, 85.229 144.025, 84.897 141 C 84.565 137.975, 84.321 146.525, 84.354 160" stroke="none" fill="#10315b" fill-rule="evenodd"/><path d="M 35.446 56.279 C 35.176 56.983, 35.088 66.321, 35.251 77.029 C 35.546 96.500, 35.546 96.500, 35.773 76.323 C 35.978 58.060, 36.166 56.103, 37.750 55.689 C 39.390 55.261, 39.388 55.225, 37.719 55.116 C 36.739 55.052, 35.716 55.576, 35.446 56.279 M 111.750 123.744 C 116.287 123.929, 123.713 123.929, 128.250 123.744 C 132.787 123.559, 129.075 123.407, 120 123.407 C 110.925 123.407, 107.213 123.559, 111.750 123.744" stroke="none" fill="#052a50" fill-rule="evenodd"/><path d="M 127.580 63.870 C 127.284 64.349, 127.119 67.611, 127.213 71.120 C 127.307 74.629, 127.552 76.505, 127.757 75.289 C 128.100 73.253, 128.772 73.052, 136.314 72.743 C 144.500 72.407, 144.500 72.407, 136.250 72.204 C 128 72, 128 72, 128 68.040 C 128 64.081, 128 64.081, 136.250 63.744 C 144.500 63.407, 144.500 63.407, 136.309 63.204 C 131.804 63.092, 127.876 63.392, 127.580 63.870 M 36 164 C 36 181.111, 36.217 184, 37.500 184 C 38.783 184, 39 181.111, 39 164 C 39 146.889, 38.783 144, 37.500 144 C 36.217 144, 36 146.889, 36 164" stroke="none" fill="#143757" fill-rule="evenodd"/><path d="" stroke="none" fill="#0c385c" fill-rule="evenodd"/><path d="" stroke="none" fill="#969aac" fill-rule="evenodd"/><path d="M 108 79.917 C 108 80.513, 108.563 81.007, 109.250 81.015 C 110.083 81.026, 110 81.354, 109 82 C 108.175 82.533, 107.893 82.976, 108.372 82.985 C 108.852 82.993, 108.652 83.715, 107.927 84.588 C 106.345 86.495, 106.653 95.158, 108.341 96.232 C 109.093 96.710, 108.885 96.975, 107.750 96.985 C 105.887 97.001, 105.571 97.831, 106.765 99.570 C 107.197 100.198, 108.531 100.342, 110 99.919 C 111.711 99.427, 111.929 99.168, 110.691 99.100 C 109.696 99.045, 109.171 98.532, 109.525 97.959 C 109.879 97.387, 111.143 97.191, 112.334 97.525 C 113.866 97.954, 114.102 97.855, 113.140 97.189 C 112.165 96.512, 111.882 94.447, 112.140 89.873 C 112.376 85.703, 112.129 83.566, 111.427 83.691 C 110.837 83.796, 110.387 82.942, 110.427 81.792 C 110.467 80.643, 109.938 79.507, 109.250 79.268 C 108.563 79.029, 108 79.321, 108 79.917 M 104 101.314 C 104 101.621, 105.350 105.379, 107 109.663 C 108.650 113.948, 110.014 118.140, 110.030 118.977 C 110.055 120.223, 110.242 120.188, 111.058 118.790 C 112.170 116.883, 111.922 109.004, 110.750 109.001 C 110.338 109.001, 110 108.068, 110 106.929 C 110 105.789, 109.325 104.182, 108.500 103.357 C 107.675 102.532, 107 102.169, 107 102.551 C 107 102.933, 106.325 102.685, 105.500 102 C 104.675 101.315, 104 101.007, 104 101.314" stroke="none" fill="#61759c" fill-rule="evenodd"/><path d="M 104 52 C 104 56, 104 56, 108 56 C 112 56, 112 56, 112 52 C 112 48, 112 48, 108 48 C 104 48, 104 48, 104 52 M 128 68 C 128 72, 128 72, 136 72 C 144 72, 144 72, 144 68 C 144 64, 144 64, 136 64 C 128 64, 128 64, 128 68 M 208 180 C 208 184, 208 184, 212 184 C 216 184, 216 184, 216 180 C 216 176, 216 176, 212 176 C 208 176, 208 176, 208 180" stroke="none" fill="#13375b" fill-rule="evenodd"/><path d="M 104 52 C 104 56, 104 56, 108 56 C 112 56, 112 56, 112 52 C 112 48, 112 48, 108 48 C 104 48, 104 48, 104 52 M 128 68 C 128 72, 128 72, 136 72 C 144 72, 144 72, 144 68 C 144 64, 144 64, 136 64 C 128 64, 128 64, 128 68 M 208 180 C 208 184, 208 184, 212 184 C 216 184, 216 184, 216 180 C 216 176, 216 176, 212 176 C 208 176, 208 176, 208 180" stroke="none" fill="#13375b" fill-rule="evenodd"/><path d="M 145.057 132.673 C 143.743 133.593, 143.012 133.789, 143.433 133.109 C 144.491 131.397, 137.683 132.676, 132.873 135.093 C 128.658 137.211, 127.550 139.307, 129.227 141.992 C 130.371 143.823, 130.497 143.792, 132.151 141.270 C 133.102 139.821, 134.617 138.527, 135.518 138.395 C 136.419 138.262, 137.909 137.811, 138.828 137.392 C 139.748 136.972, 142.939 135.925, 145.921 135.065 C 148.903 134.204, 151.528 132.938, 151.754 132.250 C 152.361 130.411, 147.883 130.693, 145.057 132.673 M 137.453 149.750 C 135.973 153.156, 139.406 161.132, 141.528 159.216 C 141.964 158.822, 142.061 158.959, 141.743 159.520 C 140.754 161.269, 149.350 171.921, 150.639 170.542 C 151.552 169.564, 151.762 166.728, 151.128 163.939 C 151.057 163.630, 150.082 162.392, 148.961 161.189 C 147.840 159.985, 147.174 159, 147.481 159 C 148.256 159, 144.066 150.923, 142.456 149.313 C 140.622 147.479, 138.354 147.677, 137.453 149.750" stroke="none" fill="#aa4d44" fill-rule="evenodd"/><path d="M 166.250 134.689 C 170.222 135.727, 168.136 138.212, 163.595 137.851 C 161.173 137.658, 159.400 137.838, 159.654 138.250 C 159.909 138.662, 159.641 139, 159.059 139 C 158.477 139, 157.964 139.787, 157.921 140.750 C 157.874 141.795, 157.639 141.997, 157.338 141.250 C 156.578 139.368, 155.429 139.749, 155.429 141.883 C 155.429 143.553, 156.307 143.782, 163.214 143.907 C 167.496 143.985, 171 143.632, 171 143.122 C 171 142.613, 172.350 141.725, 174 141.150 C 178.138 139.707, 177.977 137.010, 173.750 136.968 C 170.676 136.938, 170.605 136.857, 172.441 135.468 C 174.228 134.117, 173.990 134.009, 169.441 134.116 C 166.724 134.180, 165.287 134.438, 166.250 134.689 M 143 135.726 C 142.175 136.038, 141.140 136.902, 140.700 137.647 C 140.260 138.391, 138.810 139, 137.476 139 C 135.793 139, 134.577 139.918, 133.500 142 C 132.108 144.691, 132.987 146.448, 134.500 144 C 134.840 143.450, 136.468 143, 138.118 143 C 139.768 143, 140.883 143.380, 140.597 143.844 C 140.310 144.308, 141.746 144.559, 143.788 144.403 C 145.829 144.246, 148.512 144.091, 149.750 144.059 C 151.687 144.008, 152 143.460, 152 140.117 C 152 135.518, 148.308 133.717, 143 135.726 M 123.934 157.484 C 122.321 161.044, 121 164.641, 121 165.478 C 121 166.315, 120.583 167, 120.073 167 C 119.564 167, 118.451 168.393, 117.602 170.096 C 116.388 172.529, 116.346 173.081, 117.407 172.674 C 118.149 172.389, 119.190 172.590, 119.721 173.121 C 120.340 173.740, 121.143 173.532, 121.965 172.542 C 122.834 171.496, 122.884 171, 122.122 171 C 121.505 171, 121 171.525, 121 172.167 C 121 174.013, 119.649 172.172, 119.293 169.840 C 119.008 167.969, 119.164 167.887, 120.678 169.116 C 122.139 170.301, 122.261 170.296, 121.528 169.080 C 120.904 168.046, 121.081 167.817, 122.180 168.239 C 123.320 168.676, 123.580 168.252, 123.244 166.498 C 123 165.222, 123.282 163.351, 123.870 162.339 C 124.749 160.828, 124.956 161.302, 125.033 165 C 125.104 168.388, 125.333 169.006, 125.959 167.500 C 126.417 166.400, 128.179 164.188, 129.874 162.584 C 132.195 160.388, 132.810 159.093, 132.369 157.334 C 131.952 155.673, 132.212 155, 133.269 155 C 134.086 155, 135.315 154.325, 136 153.500 C 136.860 152.464, 136.898 152, 136.122 152 C 135.505 152, 135 152.477, 135 153.059 C 135 153.641, 134.591 153.865, 134.090 153.556 C 131.729 152.096, 129.831 154.291, 130.343 157.890 C 130.625 159.875, 130.631 160.713, 130.355 159.750 C 129.767 157.700, 127.923 157.481, 126.140 159.250 C 125.129 160.254, 124.982 159.934, 125.396 157.627 C 125.680 156.047, 126.229 154.472, 126.615 154.127 C 127.002 153.782, 127.036 154.287, 126.691 155.250 C 126.345 156.213, 126.337 157, 126.671 157 C 127.378 157, 129.921 153.805, 129.968 152.857 C 130.156 149.055, 126.477 151.876, 123.934 157.484" stroke="none" fill="#b85746" fill-rule="evenodd"/><path d="" stroke="none" fill="#f17d58" fill-rule="evenodd"/><path d="" stroke="none" fill="#4b72b4" fill-rule="evenodd"/><path d="" stroke="none" fill="#b05341" fill-rule="evenodd"/><path d="M 160.076 81.301 C 158.174 86.302, 161.912 92.716, 165.865 91.237 C 167.164 90.751, 167.272 90.921, 166.391 92.063 C 164.166 94.945, 163.855 100, 165.903 100 C 169.034 100, 170.323 97.527, 169.140 93.789 C 167.995 90.169, 168.066 84.924, 169.250 85.655 C 171.158 86.833, 169.680 84.680, 166.750 82.015 C 162.816 78.436, 161.229 78.266, 160.076 81.301 M 161.012 110.711 C 159.258 112.942, 158.716 113.164, 157.955 111.961 C 157.325 110.965, 157.026 110.898, 157.015 111.750 C 157.007 112.438, 156.662 112.927, 156.250 112.839 C 155.838 112.750, 154.150 113.247, 152.500 113.943 C 150.850 114.640, 147.800 115.267, 145.722 115.338 C 142.927 115.434, 142.019 115.862, 142.233 116.984 C 142.950 120.738, 160.996 119.534, 164.706 115.485 C 168.528 111.312, 168.569 111.152, 166.250 109.392 C 163.815 107.543, 163.428 107.641, 161.012 110.711" stroke="none" fill="#f9a99f" fill-rule="evenodd"/><path d="M 169.232 98 C 168.545 99.100, 167.060 100, 165.933 100 C 164.805 100, 164.160 100.450, 164.500 101 C 164.840 101.550, 164.390 102, 163.500 102 C 162.610 102, 162.157 101.555, 162.493 101.011 C 162.837 100.455, 162.457 100.271, 161.622 100.592 C 160.807 100.904, 159.658 102.541, 159.070 104.229 C 157.742 108.040, 157.742 108.278, 159.074 107.454 C 159.664 107.089, 159.563 107.727, 158.849 108.870 C 158.023 110.194, 157.905 111.238, 158.525 111.742 C 159.061 112.177, 159.403 112.354, 159.284 112.134 C 159.165 111.914, 160.178 110.862, 161.534 109.795 C 162.890 108.728, 164 107.231, 164 106.468 C 164 105.705, 165.800 103.244, 168 101 C 170.200 98.756, 172 96.712, 172 96.460 C 172 95.285, 170.356 96.200, 169.232 98 M 171.500 109.523 C 169.300 111.432, 166.150 114.344, 164.499 115.996 C 162.849 117.648, 160.936 119, 160.249 119 C 158.782 119, 158.478 127.559, 159.913 128.446 C 168.988 134.055, 175.501 129.747, 175.519 118.125 C 175.530 111.456, 175.530 106.012, 175.519 106.027 C 175.509 106.042, 173.700 107.615, 171.500 109.523 M 155.697 178.991 C 153.576 184.963, 153.578 185, 156 185 C 157.899 185, 158.458 183.338, 158.269 178.250 C 158.243 177.563, 158.622 177, 159.111 177 C 160.477 177, 160.165 175.277, 158.697 174.714 C 157.853 174.390, 156.796 175.897, 155.697 178.991 M 107.289 183.176 C 103.500 184.852, 103.500 184.852, 110.191 184.926 C 114.246 184.971, 117.163 184.545, 117.595 183.845 C 118.070 183.077, 117.866 182.965, 116.985 183.510 C 116.070 184.075, 115.828 183.891, 116.203 182.914 C 116.969 180.918, 112.069 181.062, 107.289 183.176 M 126.199 186.744 C 130.984 186.927, 139.084 186.928, 144.199 186.746 C 149.315 186.564, 145.400 186.414, 135.500 186.413 C 125.600 186.412, 121.415 186.561, 126.199 186.744 M 171.807 186.747 C 178.576 186.921, 189.376 186.920, 195.807 186.746 C 202.238 186.572, 196.700 186.431, 183.500 186.431 C 170.300 186.432, 165.038 186.574, 171.807 186.747" stroke="none" fill="#b7c4ef" fill-rule="evenodd"/><path d="M 167.960 101.040 C 163.297 105.798, 163.131 106.884, 166.610 109.909 C 170.944 113.677, 178.895 104.410, 175.989 98.979 C 174.409 96.027, 172.359 96.553, 167.960 101.040" stroke="none" fill="#ced5f3" fill-rule="evenodd"/><path d="" stroke="none" fill="#c7624f" fill-rule="evenodd"/><path d="M 47.403 142 C 47.500 148.500, 47.500 148.500, 60 148.564 C 72.500 148.627, 72.500 148.627, 60 148.016 C 47.500 147.405, 47.500 147.405, 59.643 147.203 C 68.277 147.059, 71.925 146.639, 72.268 145.750 C 72.641 144.782, 69.974 144.569, 60.432 144.806 C 48.114 145.113, 48.114 145.113, 47.710 140.306 C 47.421 136.866, 47.334 137.347, 47.403 142 M 77 163.393 C 77 164.159, 76.325 165.045, 75.500 165.362 C 74.675 165.678, 74.001 165.614, 74.001 165.219 C 74.002 164.823, 68.315 164.651, 61.363 164.835 C 51.626 165.092, 48.528 164.862, 47.877 163.835 C 47.058 162.543, 46.997 162.656, 47.001 165.475 C 47.001 165.737, 54.122 166.102, 62.826 166.287 C 78.651 166.623, 78.651 166.623, 78.209 164.312 C 77.721 161.760, 77 161.212, 77 163.393 M 48 170 C 48 170.615, 53 171, 61 171 C 69 171, 74 170.615, 74 170 C 74 169.385, 69 169, 61 169 C 53 169, 48 169.385, 48 170" stroke="none" fill="#507dc1" fill-rule="evenodd"/><path d="M 32.071 39.485 C 32.168 45.566, 32.625 49.732, 33.158 49.402 C 34.361 48.659, 34.050 29, 32.835 29 C 32.308 29, 31.976 33.558, 32.071 39.485 M 91.210 40.250 C 91.583 50.848, 93.403 50.676, 93.790 40.007 C 94.035 33.252, 93.834 32, 92.500 32 C 91.163 32, 90.964 33.273, 91.210 40.250 M 92.339 51.250 C 90.609 54.026, 90.647 72, 92.384 72 C 93.737 72, 94 70.700, 94 64 C 94 59.036, 93.598 56, 92.941 56 C 92.359 56, 92.159 55.552, 92.498 55.004 C 93.266 53.761, 94.020 50, 93.502 50 C 93.291 50, 92.767 50.563, 92.339 51.250 M 32 76.500 C 32 89.743, 32.360 97, 33.018 97 C 33.684 97, 33.954 89.898, 33.800 76.500 C 33.670 65.225, 33.212 56, 32.782 56 C 32.352 56, 32 65.225, 32 76.500 M 31.676 104.599 C 32.339 106.325, 80 106.721, 80 105 C 80 104.365, 71.699 103.972, 57.250 103.923 C 44.737 103.881, 33.744 103.701, 32.819 103.522 C 31.719 103.309, 31.324 103.681, 31.676 104.599 M 193 109.969 C 193 110.501, 192.397 110.706, 191.660 110.423 C 188.697 109.286, 186.180 117.037, 188.696 119.553 C 189.544 120.401, 189.875 121.819, 189.501 122.997 C 189.049 124.419, 189.319 125, 190.433 125 C 191.438 125, 192 124.103, 192 122.500 C 192 121.125, 191.550 120, 191 120 C 190.450 120, 190 119.305, 190 118.456 C 190 117.551, 190.709 117.034, 191.714 117.206 C 192.700 117.375, 193.580 116.757, 193.787 115.750 C 194.200 113.741, 191.997 113.403, 190.200 115.200 C 189.267 116.133, 189 115.911, 189 114.200 C 189 112.113, 189.916 111.557, 192.750 111.925 C 193.438 112.015, 194 111.393, 194 110.544 C 194 109.695, 193.775 109, 193.500 109 C 193.225 109, 193 109.436, 193 109.969 M 184.694 125.354 C 183.707 127.927, 183.862 128.761, 185 127 C 185.734 125.865, 185.973 126.305, 185.985 128.809 C 185.993 130.629, 185.662 131.913, 185.250 131.663 C 184.838 131.414, 184.402 133.282, 184.282 135.815 C 184.162 138.356, 184.564 140.730, 185.178 141.110 C 185.790 141.488, 185.981 142.606, 185.603 143.593 C 184.619 146.156, 181.737 140.503, 182.546 137.598 C 183.013 135.922, 182.920 135.802, 182.081 137 C 180.636 139.063, 180.734 142.726, 182.250 143.338 C 182.938 143.615, 180.012 143.878, 175.750 143.921 C 171.303 143.966, 168 144.426, 168 145 C 168 145.550, 165.525 146, 162.500 146 C 159.058 146, 157 146.425, 157 147.137 C 157 147.946, 159.816 148.118, 166.750 147.733 C 176.500 147.192, 176.500 147.192, 168 148.524 C 159.500 149.855, 159.500 149.855, 167.750 149.323 C 173.423 148.958, 176 149.137, 176 149.896 C 176 150.517, 177.749 151, 180 151 C 183.166 151, 184 150.630, 184 149.223 C 184 148.245, 184.613 146.557, 185.363 145.473 C 187.313 142.650, 188.096 136.675, 186.323 138.147 C 184.768 139.438, 184.616 137.722, 186 134.500 C 186.859 132.500, 186.859 132.500, 186.993 134.500 C 187.114 136.308, 187.217 136.276, 188.063 134.163 C 188.746 132.461, 188.510 130.702, 187.194 127.685 C 185.734 124.336, 185.256 123.891, 184.694 125.354" stroke="none" fill="#456eba" fill-rule="evenodd"/><path d="M 37 49.876 C 37 50.986, 52.878 51.119, 59.500 50.064 C 63.390 49.444, 61.448 49.238, 50.750 49.134 C 43.188 49.060, 37 49.394, 37 49.876 M 72 50 C 72 50.583, 75.333 51, 80 51 C 84.667 51, 88 51.417, 88 52 C 88 52.550, 88.454 53, 89.008 53 C 89.606 53, 89.508 52.186, 88.768 51 C 87.395 48.801, 72 47.883, 72 50 M 62.500 100 C 65.346 101.223, 80 101.223, 80 100 C 80 99.397, 76.130 99.028, 70.250 99.070 C 63.872 99.116, 61.192 99.438, 62.500 100" stroke="none" fill="#001235" fill-rule="evenodd"/><path d="M 104.114 87.787 C 103.520 88.898, 103.460 91.105, 103.964 93.339 C 104.424 95.379, 104.589 97.856, 104.331 98.844 C 103.591 101.673, 106.107 103.144, 108.503 101.283 C 109.959 100.151, 110.049 99.886, 108.833 100.302 C 107.850 100.639, 106.926 100.250, 106.583 99.355 C 105.741 97.162, 105.815 97.008, 107.750 96.921 C 108.795 96.874, 108.997 96.639, 108.250 96.338 C 107.518 96.043, 107 94.026, 107 91.476 C 107 86.667, 105.642 84.932, 104.114 87.787" stroke="none" fill="#75789d" fill-rule="evenodd"/><path d="" stroke="none" fill="#8693b4" fill-rule="evenodd"/><path d="" stroke="none" fill="#97a6c3" fill-rule="evenodd"/><path d="" stroke="none" fill="#304161" fill-rule="evenodd"/><path d="M 73.250 30.749 C 72.563 30.979, 72 31.804, 72 32.583 C 72 33.362, 71.648 34, 71.217 34 C 70.265 34, 70.359 38.153, 71.346 39.751 C 71.955 40.736, 78.679 40.654, 79.684 39.649 C 83.485 35.849, 78.524 28.987, 73.250 30.749" stroke="none" fill="#2a3c5a" fill-rule="evenodd"/><path d="M 35.241 134.219 C 35.800 135.888, 48.740 136.121, 49.372 134.473 C 49.667 133.704, 48.053 133.348, 44.405 133.378 C 41.372 133.403, 38.993 133.878, 38.985 134.461 C 38.975 135.144, 38.718 135.158, 38.235 134.500 C 37.120 132.982, 34.753 132.760, 35.241 134.219" stroke="none" fill="#213252" fill-rule="evenodd"/><path d="M 39.254 27.750 C 39.369 29.311, 40.309 29.448, 47.941 29.023 C 56.500 28.547, 56.500 28.547, 48 27.982 C 39.500 27.417, 39.500 27.417, 48 26.912 C 56.500 26.407, 56.500 26.407, 47.812 26.204 C 40.085 26.022, 39.139 26.193, 39.254 27.750 M 36.446 32.280 C 36.149 33.054, 36.063 37.020, 36.254 41.094 C 36.603 48.500, 36.603 48.500, 36.988 40 C 37.373 31.500, 37.373 31.500, 38 40 C 38.627 48.500, 38.627 48.500, 38.814 40.309 C 38.985 32.788, 37.797 28.760, 36.446 32.280 M 47.656 33.455 C 47.103 34.894, 47.550 38.883, 48.353 39.686 C 48.582 39.915, 50.958 40.123, 53.635 40.148 C 63.591 40.241, 64 40.149, 64 37.833 C 64 34.213, 65.057 36.472, 65.286 40.582 C 65.533 45.016, 70.175 48.897, 71.913 46.122 C 72.445 45.274, 73.300 45.059, 74.138 45.564 C 75.274 46.248, 75.272 46.103, 74.128 44.692 C 72.669 42.894, 70.456 42.311, 71.500 44 C 71.840 44.550, 71.191 45, 70.059 45 C 68.177 45, 67.341 42.931, 67.906 39.676 C 67.985 39.222, 67.523 39.177, 66.879 39.575 C 66.042 40.092, 65.898 39.542, 66.373 37.649 C 66.767 36.082, 66.622 35, 66.019 35 C 65.459 35, 65 34.325, 65 33.500 C 65 31.338, 48.484 31.295, 47.656 33.455 M 40.683 38.650 C 40.307 39.026, 40 41.283, 40 43.667 C 40 48.426, 45.058 50.084, 48.643 46.500 C 49.468 45.675, 49.661 45, 49.071 45 C 48.482 45, 47.993 43.987, 47.985 42.750 C 47.961 39.243, 46.445 37.386, 44.752 38.791 C 43.826 39.560, 43.017 39.617, 42.360 38.960 C 41.813 38.413, 41.059 38.274, 40.683 38.650 M 36.281 77.750 C 36.276 95.270, 36.550 100, 37.567 100 C 38.586 100, 38.845 95.299, 38.796 77.750 C 38.761 65.512, 38.427 57.525, 38.052 60 C 37.371 64.500, 37.371 64.500, 36.829 60 C 36.531 57.525, 36.284 65.512, 36.281 77.750 M 40 60 C 40 64.136, 40.279 64.355, 45.151 64.041 C 48.037 63.855, 49.121 71.338, 46.250 71.625 C 45.563 71.694, 43.857 71.806, 42.460 71.875 C 39.929 71.999, 39.920 72.033, 40.210 80.249 C 40.500 88.498, 40.500 88.498, 44.500 88.208 C 47.481 87.991, 48.118 88.178, 47 88.943 C 45.989 89.635, 45.908 89.974, 46.750 89.985 C 47.469 89.993, 48 91.275, 48 93 C 48 95.833, 48.222 96, 52 96 C 55.857 96, 56.659 95.173, 56.118 91.750 C 55.933 90.578, 56.717 90.860, 58.444 92.586 C 59.892 94.035, 60.165 93.849, 61.588 90.445 C 63.019 87.018, 63.009 86.587, 61.456 85.108 C 59.885 83.613, 59.847 83.658, 60.918 85.750 C 61.929 87.724, 61.820 88, 60.035 88 C 58.916 88, 58 88.477, 58 89.059 C 58 89.641, 57.640 89.895, 57.199 89.623 C 55.777 88.744, 55.786 81.003, 57.209 80.970 C 57.930 80.953, 57.674 80.459, 56.630 79.853 C 55.150 78.993, 55.040 78.593, 56.101 77.938 C 58.007 76.760, 56.823 75.972, 54.185 76.662 C 52.426 77.122, 52.198 77.534, 53.101 78.622 C 54.031 79.743, 53.662 80, 51.122 80 C 47.964 80, 46.675 77.701, 49.250 76.662 C 50.250 76.259, 50.250 76.142, 49.250 76.079 C 48.563 76.036, 48 75.325, 48 74.500 C 48 72.781, 49.150 72.550, 50.581 73.981 C 52.331 75.731, 56.663 70.696, 56.420 67.194 C 56.218 64.272, 56.384 64.131, 59.957 64.180 C 64.032 64.236, 65.403 68.869, 61.984 71.031 C 60.647 71.876, 61.290 72.428, 63.250 72.118 C 63.663 72.053, 64 72.927, 64 74.059 C 64 75.191, 63.581 75.859, 63.069 75.543 C 62.557 75.226, 61.849 75.436, 61.495 76.008 C 61.141 76.581, 61.388 76.926, 62.043 76.775 C 62.698 76.624, 63.362 77.256, 63.519 78.181 C 63.713 79.330, 63.320 79.676, 62.277 79.276 C 60.964 78.772, 60.979 79.039, 62.388 81.188 C 63.588 83.019, 63.924 85.328, 63.648 89.843 C 63.272 96, 63.272 96, 67.934 96 C 72.596 96, 72.596 96, 72.548 92.250 C 72.502 88.628, 72.628 88.489, 76.250 88.190 C 78.313 88.019, 80 87.430, 80 86.881 C 80 86.331, 80.495 86.188, 81.100 86.562 C 81.899 87.056, 81.899 86.681, 81.100 85.186 C 79.413 82.034, 79.766 80, 82 80 C 83.100 80, 84 80.450, 84 81 C 84 81.550, 84.477 82, 85.059 82 C 85.641 82, 85.840 81.550, 85.500 81 C 85.160 80.450, 85.546 80, 86.358 80 C 88.195 80, 88.727 78.501, 88.190 74.840 C 87.783 72.066, 87.082 71.686, 82.500 71.756 C 81.400 71.773, 80.187 71.285, 79.804 70.672 C 79.422 70.059, 78.760 69.907, 78.333 70.333 C 77.907 70.760, 78.220 71.534, 79.029 72.054 C 80.320 72.884, 80.317 73.131, 79 74.076 C 77.871 74.886, 77.809 75.278, 78.750 75.659 C 80.662 76.435, 80.237 78.705, 78.075 79.270 C 76.617 79.651, 76.294 79.376, 76.744 78.137 C 77.268 76.697, 77.099 76.710, 75.341 78.250 C 74.242 79.213, 73.153 80, 72.921 80 C 72.114 80, 72.150 67.026, 72.958 66.526 C 74.124 65.805, 76.298 68.709, 75.527 69.956 C 75.172 70.530, 75.411 71, 76.058 71 C 76.789 71, 77.005 70.149, 76.630 68.750 C 76.299 67.513, 76.021 66.194, 76.014 65.820 C 76.006 65.445, 74.987 64.940, 73.750 64.696 C 72.513 64.453, 73.300 64.266, 75.500 64.280 C 88.144 64.362, 88 64.411, 88 60 C 88 56, 88 56, 64 56 C 40 56, 40 56, 40 60 M 47.640 97.774 C 47.118 98.618, 78.968 98.365, 79.815 97.519 C 80.100 97.233, 73.085 97, 64.226 97 C 55.366 97, 47.903 97.348, 47.640 97.774" stroke="none" fill="#001333" fill-rule="evenodd"/><path d="M 127.750 185.744 C 132.287 185.929, 139.713 185.929, 144.250 185.744 C 148.787 185.559, 145.075 185.407, 136 185.407 C 126.925 185.407, 123.213 185.559, 127.750 185.744" stroke="none" fill="#0e1838" fill-rule="evenodd"/><path d="M 40 30 C 40 30.583, 43.333 31, 48 31 C 52.667 31, 56 30.583, 56 30 C 56 29.417, 52.667 29, 48 29 C 43.333 29, 40 29.417, 40 30 M 88.199 39.672 C 88 47.843, 88 47.843, 79.858 47.897 C 75.380 47.926, 71.480 48.186, 71.192 48.475 C 70.903 48.764, 74.581 49, 79.365 49 C 89.502 49, 89.234 49.289, 88.746 38.906 C 88.397 31.500, 88.397 31.500, 88.199 39.672" stroke="none" fill="#00132f" fill-rule="evenodd"/><path d="M 31.468 22.051 C 31.018 22.779, 40.310 23.052, 61.659 22.939 C 91.019 22.783, 92.517 22.865, 92.847 24.638 C 93.038 25.662, 93.667 26.950, 94.244 27.500 C 94.967 28.188, 95.093 27.929, 94.647 26.668 C 94.291 25.661, 94 23.973, 94 22.918 C 94 20.682, 32.839 19.834, 31.468 22.051 M 32.333 25.667 C 32.333 26.400, 32.664 27, 33.069 27 C 34.451 27, 34.169 49.276, 32.775 50.160 C 31.751 50.810, 31.758 50.972, 32.809 50.985 C 33.542 50.993, 33.804 51.508, 33.405 52.155 C 32.954 52.884, 33.131 53.037, 33.886 52.571 C 35.567 51.531, 35.216 24.333, 33.521 24.333 C 32.868 24.333, 32.333 24.933, 32.333 25.667 M 32.698 55.250 C 34.590 57.759, 34.292 97.143, 32.383 96.801 C 31.461 96.635, 30.511 97.063, 30.270 97.750 C 30.008 98.500, 30.700 99, 32 99 C 33.311 99, 33.986 99.494, 33.708 100.250 C 33.456 100.938, 32.702 101.373, 32.031 101.219 C 31.361 101.064, 30.992 101.475, 31.210 102.131 C 33.813 109.940, 35 103.164, 35 80.493 C 35 57.324, 34.720 54, 32.771 54 C 32.122 54, 32.096 54.452, 32.698 55.250 M 147.079 56.750 C 147.020 57.676, 143.891 58, 135 58 C 125 58, 123 58.250, 123 59.500 C 123 60.325, 123.450 61, 124 61 C 124.592 61, 125 64.647, 125 69.941 C 125 74.859, 125.338 79.091, 125.750 79.345 C 126.162 79.600, 126.500 75.395, 126.500 70 C 126.500 64.605, 126.162 60.400, 125.750 60.655 C 125.338 60.909, 125 60.641, 125 60.059 C 125 58.521, 144.252 58.652, 145.800 60.200 C 146.733 61.133, 147 61.013, 147 59.661 C 147 58.224, 147.242 58.146, 148.389 59.211 C 149.396 60.145, 149.465 60.702, 148.639 61.235 C 147.819 61.764, 147.850 61.974, 148.750 61.985 C 149.642 61.996, 149.996 64.217, 149.985 69.750 C 149.976 74.400, 149.629 76.963, 149.119 76.158 C 148.494 75.173, 148.141 75.480, 147.790 77.317 C 147.413 79.290, 147.648 79.692, 148.906 79.221 C 150.286 78.706, 150.316 78.852, 149.128 80.313 C 147.941 81.771, 147.984 82, 149.444 82 C 150.948 82, 151.106 80.692, 150.889 70 C 150.711 61.254, 150.309 58, 149.406 58 C 148.724 58, 147.940 57.438, 147.662 56.750 C 147.259 55.750, 147.142 55.750, 147.079 56.750 M 110.405 83.155 C 109.979 83.844, 110.129 84.039, 110.776 83.638 C 112.576 82.526, 112.837 84.163, 112.031 91.500 C 111.137 99.637, 111.726 100.785, 115.640 98.534 C 118.500 96.889, 118.500 96.889, 115 97.389 C 111.921 97.828, 111.770 97.757, 113.750 96.791 C 116.489 95.456, 116.851 89.546, 114.474 84.950 C 112.858 81.825, 111.576 81.259, 110.405 83.155 M 81.521 105.033 C 81.955 105.737, 73.995 105.976, 56.579 105.783 C 40.003 105.600, 30.999 105.852, 30.999 106.500 C 31 107.142, 40.614 107.500, 57.841 107.500 C 82.912 107.500, 84.652 107.385, 84.224 105.750 C 83.973 104.787, 83.118 104, 82.324 104 C 81.531 104, 81.169 104.465, 81.521 105.033 M 189.538 108.958 C 187.798 110.881, 183.492 124.825, 184.368 125.701 C 184.843 126.177, 188 116.011, 188 114.004 C 188 113.350, 188.822 111.770, 189.828 110.492 C 192.558 107.021, 194.466 108.803, 194.325 114.695 C 194.237 118.395, 194.393 118.925, 195.006 117 C 196.454 112.446, 196.106 109.127, 194.066 108.035 C 191.548 106.688, 191.602 106.677, 189.538 108.958 M 190 118.417 C 190 119.196, 189.483 120.006, 188.851 120.216 C 188.178 120.441, 187.773 122.444, 187.873 125.050 C 188.210 133.766, 188.161 136.545, 187.607 140 C 187.057 143.426, 187.074 143.415, 188.393 139.478 C 190.788 132.333, 191.367 128.655, 189.960 129.525 C 188.994 130.121, 188.832 129.180, 189.255 125.433 C 189.556 122.756, 190.298 120.401, 190.902 120.199 C 192.275 119.742, 192.359 117, 191 117 C 190.450 117, 190 117.638, 190 118.417 M 154.792 145.125 C 154.153 145.522, 154.229 146.023, 155 146.500 C 155.930 147.075, 155.896 147.451, 154.857 148.110 C 153.714 148.833, 153.715 148.972, 154.857 148.985 C 155.610 148.993, 155.974 149.626, 155.674 150.407 C 155.227 151.573, 157.664 151.836, 169.934 151.946 C 184.369 152.076, 189.975 149.641, 185.514 145.181 C 185.239 144.906, 184.747 146.015, 184.421 147.645 C 183.832 150.592, 157 152.794, 157 149.896 C 157 149.403, 159.137 148.961, 161.750 148.912 C 164.363 148.864, 168.750 148.457, 171.500 148.007 C 174.983 147.437, 173.542 147.354, 166.750 147.732 C 160.063 148.104, 157 147.932, 157 147.187 C 157 146.566, 159.466 145.967, 162.750 145.790 C 168.500 145.480, 168.500 145.480, 162.149 144.990 C 158.656 144.720, 155.345 144.781, 154.792 145.125 M 198.135 157.942 C 196.125 164.654, 196.591 168.011, 199.500 167.771 C 200.875 167.657, 202 167.164, 202 166.675 C 202 166.186, 202.698 166.054, 203.552 166.382 C 204.406 166.709, 204.847 166.561, 204.532 166.052 C 203.850 164.948, 200 165.085, 200 166.213 C 200 166.646, 199.550 167, 199 167 C 197.511 167, 197.791 160.668, 199.376 158.501 C 200.621 156.798, 200.723 156.982, 200.449 160.437 C 200.104 164.778, 201.445 164.065, 202.303 159.450 C 203.261 154.300, 199.621 152.983, 198.135 157.942 M 223.455 158.157 C 221.496 162.029, 215.469 168.136, 214.532 167.198 C 214.181 166.848, 214.191 167.335, 214.554 168.280 C 215.189 169.935, 213.606 170.785, 212.747 169.250 C 212.517 168.838, 212.454 169.033, 212.608 169.685 C 212.762 170.337, 212.350 171.052, 211.694 171.273 C 211.037 171.494, 211.937 171.717, 213.692 171.769 C 216.074 171.839, 216.745 171.499, 216.335 170.431 C 216.033 169.644, 216.231 169, 216.775 169 C 217.318 169, 219.161 166.863, 220.870 164.250 C 223.108 160.827, 223.980 160.067, 223.988 161.527 C 223.995 162.643, 223.331 164.509, 222.514 165.676 C 221.200 167.552, 221.200 167.863, 222.514 168.367 C 223.429 168.718, 224 168.350, 224 167.410 C 224 166.569, 224.403 166.131, 224.895 166.435 C 225.886 167.048, 227.008 164.756, 226.985 162.168 C 226.971 160.726, 226.838 160.703, 226 162 C 225.172 163.282, 225.028 163.246, 225.015 161.750 C 225.007 160.787, 225.675 160, 226.500 160 C 227.325 160, 228 159.293, 228 158.429 C 228 157.020, 227.833 157.025, 226.381 158.476 C 224.390 160.467, 223.223 159.642, 225 157.500 C 225.707 156.648, 226.029 155.696, 225.716 155.383 C 225.403 155.070, 224.386 156.318, 223.455 158.157" stroke="none" fill="#4469b9" fill-rule="evenodd"/><path d="M 215.549 136.382 C 215.247 137.822, 214.766 140.125, 214.481 141.500 C 213.898 144.310, 215.563 144.969, 216.378 142.250 C 217.089 139.876, 216.252 152.674, 215.429 156.750 C 214.926 159.243, 215.116 160, 216.246 160 C 217.346 160, 217.647 158.985, 217.434 156 C 217.278 153.800, 217.574 152, 218.094 152 C 218.613 152, 218.802 150.988, 218.513 149.750 C 218.224 148.512, 217.807 144.654, 217.585 141.174 C 217.139 134.169, 216.385 132.394, 215.549 136.382 M 48 140 C 48 144, 48 144, 60.500 144 C 73 144, 73 144, 73 140 C 73 136, 73 136, 60.500 136 C 48 136, 48 136, 48 140 M 73.848 140.448 C 73.563 144.029, 73.835 144.985, 75.247 145.354 C 76.591 145.706, 77.003 145.193, 77.014 143.156 C 77.021 141.695, 77.299 139.488, 77.630 138.250 C 78.110 136.461, 77.820 136, 76.217 136 C 74.551 136, 74.140 136.772, 73.848 140.448 M 47.207 156 C 47.500 160.500, 47.500 160.500, 60 160.500 C 72.500 160.500, 72.500 160.500, 73.100 156 C 73.700 151.500, 73.700 151.500, 73.850 156.167 C 73.944 159.087, 73.532 161.022, 72.750 161.338 C 72.003 161.639, 72.205 161.874, 73.250 161.921 C 74.687 161.986, 75.027 161.060, 75.150 156.750 C 75.300 151.500, 75.300 151.500, 76.035 156 C 76.769 160.500, 76.769 160.500, 76.635 156.120 C 76.500 151.739, 76.500 151.739, 61.707 151.620 C 46.913 151.500, 46.913 151.500, 47.207 156 M 48 162.946 C 48 163.479, 53.897 164.025, 61.502 164.196 C 74.276 164.484, 77.823 163.990, 72.750 162.630 C 69.062 161.642, 48 161.910, 48 162.946 M 47.116 175.694 C 47 183.889, 47 183.889, 60.002 184.194 C 73.004 184.500, 73.004 184.500, 73.002 180.250 C 73 176, 73 176, 60.250 175.797 C 47.500 175.595, 47.500 175.595, 60 175 C 72.500 174.405, 72.500 174.405, 60.250 174.203 C 52.885 174.081, 48 173.601, 48 173 C 48 172.385, 53 172, 61 172 C 74 172, 74 172, 74 178.167 C 74 185.687, 74.793 185.551, 75.110 177.976 C 75.236 174.964, 75.663 172.275, 76.059 172 C 76.455 171.725, 76.153 170.920, 75.389 170.211 C 74.588 169.467, 74 169.361, 74 169.961 C 74 171.996, 48.225 171.300, 47.689 169.250 C 47.438 168.287, 47.180 171.187, 47.116 175.694" stroke="none" fill="#4b7dc7" fill-rule="evenodd"/><path d="M 60.669 144.931 C 67.912 145.244, 74.175 145.838, 74.586 146.250 C 74.997 146.662, 74.583 147, 73.667 147 C 72.750 147, 72 147.372, 72 147.827 C 72 148.282, 73.350 148.455, 75 148.213 C 84.662 146.795, 73.421 143.966, 59 144.187 C 47.500 144.363, 47.500 144.363, 60.669 144.931 M 60.445 151.733 C 72.893 152.059, 72.893 152.059, 73.299 156.779 C 73.704 161.500, 73.704 161.500, 73.602 156.500 C 73.500 151.500, 73.500 151.500, 60.748 151.453 C 47.997 151.407, 47.997 151.407, 60.445 151.733 M 75.667 151.667 C 75.300 152.033, 75 154.396, 75 156.917 C 75.001 161.500, 75.001 161.500, 61.903 161.147 C 54.700 160.953, 48.423 161.178, 47.955 161.647 C 47.486 162.118, 53.210 162.500, 60.720 162.500 C 70.723 162.500, 74.445 162.832, 74.751 163.750 C 75.902 167.210, 76.854 164.276, 76.328 158.892 C 75.876 154.273, 76.068 152.571, 77.115 151.908 C 77.877 151.425, 78.013 151.024, 77.417 151.015 C 76.821 151.007, 76.033 151.300, 75.667 151.667 M 47.496 165.007 C 46.435 166.724, 49.213 167.081, 61.061 166.748 C 72.500 166.428, 72.500 166.428, 60 166.011 C 47.500 165.595, 47.500 165.595, 60 165 C 72.500 164.405, 72.500 164.405, 60.309 164.203 C 52.978 164.081, 47.870 164.401, 47.496 165.007 M 48 173 C 48 173.615, 53 174, 61 174 C 69 174, 74 173.615, 74 173 C 74 172.385, 69 172, 61 172 C 53 172, 48 172.385, 48 173 M 60.250 175.747 C 73 176.060, 73 176.060, 73 180.530 C 73 184.120, 73.344 185, 74.750 185 C 76.183 185, 76.500 184.095, 76.500 180 C 76.500 173.648, 75.230 173.468, 74.735 179.750 C 74.360 184.500, 74.360 184.500, 74.180 179.750 C 74 175, 74 175, 60.750 175.217 C 47.500 175.435, 47.500 175.435, 60.250 175.747" stroke="none" fill="#4f81cc" fill-rule="evenodd"/><path d="M 39 163.833 C 39 176.343, 39.372 184, 39.980 184 C 41.033 184, 40.655 145.322, 39.592 144.259 C 39.266 143.933, 39 152.742, 39 163.833" stroke="none" fill="#13385a" fill-rule="evenodd"/><path d="" stroke="none" fill="#b25542" fill-rule="evenodd"/><path d="M 136.250 72.790 C 131.713 72.950, 128 73.513, 128 74.040 C 128 75.371, 143.716 75.269, 144.541 73.933 C 145.452 72.459, 145.494 72.465, 136.250 72.790 M 35.468 164.249 C 35.500 184.500, 35.500 184.500, 37.765 184.633 C 39.609 184.741, 39.659 184.682, 38.036 184.316 C 36.137 183.888, 36.026 182.905, 35.739 163.932 C 35.436 143.999, 35.436 143.999, 35.468 164.249" stroke="none" fill="#14365d" fill-rule="evenodd"/><path d="M -0 102.004 C -0 204.008, 0 204.008, 123.750 203.754 C 247.500 203.500, 247.500 203.500, 247.755 101.750 C 248.009 0, 248.009 0, 124.005 0 C 0 0, 0 0, -0 102.004 M 0.481 102.500 C 0.481 158.600, 0.602 181.403, 0.750 153.174 C 0.897 124.944, 0.897 79.044, 0.750 51.174 C 0.602 23.303, 0.481 46.400, 0.481 102.500 M 31.001 55.150 C 31 89.799, 31 89.799, 27.500 95 C 22.247 102.805, 22.975 113.756, 29.506 125.179 C 33.484 132.138, 32.343 137.093, 24.885 145.246 C 16.772 154.115, 15.681 164.897, 21.571 177.992 C 23.176 181.562, 24.360 185.052, 24.200 185.746 C 23.968 186.759, 44.468 186.959, 127.455 186.755 C 184.405 186.615, 231.038 186.173, 231.085 185.772 C 231.131 185.372, 231.838 182.672, 232.656 179.772 C 240.740 151.116, 232.298 103.110, 216.393 87.283 C 212.877 83.784, 209.997 80.601, 209.994 80.211 C 209.857 63.377, 205.431 60.139, 182.303 59.952 C 162.740 59.794, 160.933 59.054, 158.374 50.151 C 152.802 30.765, 137.916 23.124, 107.841 24.210 C 95.725 24.647, 95.081 24.572, 94.798 22.690 C 90.680 -4.671, 31.002 25.692, 31.001 55.150" stroke="none" fill="#f5efef" fill-rule="evenodd"/><path d="M 109.987 24.317 C 109.719 24.569, 106.389 25.049, 102.586 25.384 C 98.784 25.720, 95.476 26.191, 95.235 26.432 C 94.994 26.673, 94.730 37.702, 94.648 50.940 C 94.486 77.341, 94.467 77.283, 103 76.845 C 107.443 76.618, 109.132 76.978, 108.490 78.016 C 108.144 78.575, 107.373 78.731, 106.776 78.362 C 106.150 77.975, 105.977 78.154, 106.367 78.784 C 106.738 79.385, 106.245 80.341, 105.271 80.908 C 104.297 81.475, 103.915 81.953, 104.421 81.970 C 104.928 81.986, 106.100 81.314, 107.027 80.476 C 109.328 78.393, 111.287 79.387, 113.842 83.932 C 116.217 88.159, 116.757 95.528, 114.750 96.338 C 114.063 96.615, 114.625 96.894, 116 96.956 C 118.500 97.071, 118.500 97.071, 116 98.480 C 113.712 99.769, 114.422 99.914, 124.370 100.194 C 136.337 100.531, 134.870 99.361, 140.060 112.708 C 141.680 116.875, 153.250 112.389, 153.250 107.593 C 153.250 106.187, 153.613 105.261, 154.057 105.535 C 155.582 106.477, 158.196 101.625, 156.769 100.500 C 148.403 93.905, 155.243 72.964, 165.321 74.316 C 169.544 74.883, 174.712 79.005, 175.592 82.509 C 175.876 83.644, 177.083 85.007, 178.273 85.536 C 179.636 86.143, 180.908 88.142, 181.709 90.935 C 182.408 93.374, 183.496 95.689, 184.127 96.078 C 189.004 99.093, 184.960 110.565, 177.559 114.707 C 176.166 115.487, 175.764 116.859, 175.838 120.578 C 176.136 135.408, 181.656 135.774, 185.073 121.189 C 187.665 110.125, 190.349 106.046, 193.814 107.901 C 196.640 109.413, 196.594 111.995, 193.564 121.698 C 192.225 125.989, 190.384 132.425, 189.475 136 C 188.565 139.575, 187.452 142.950, 187 143.500 C 186.548 144.050, 185.864 146.188, 185.478 148.250 C 184.777 152, 184.777 152, 177.342 152 C 169.906 152, 169.906 152, 170.051 166.250 C 170.215 182.462, 170.440 183, 177.063 183 C 179.714 183, 182.160 183.450, 182.500 184 C 185.348 188.609, 206.725 184.645, 205.421 179.750 C 203.564 172.772, 203.621 172.212, 206.250 171.706 C 207.915 171.385, 207.674 171.237, 205.321 171.136 C 203.573 171.061, 201.468 170.325, 200.643 169.500 C 199.818 168.675, 198.661 168, 198.071 168 C 197.482 168, 197 166.590, 197 164.866 C 197 160.921, 199.054 153.915, 200.033 154.520 C 200.437 154.770, 200.956 150.593, 201.185 145.237 C 201.910 128.303, 208.985 116.935, 208.994 132.691 C 208.997 138.846, 209.373 144.113, 209.829 144.394 C 210.947 145.085, 212.959 154.330, 213.335 160.500 C 213.545 163.948, 213.688 163.172, 213.796 158 C 213.882 153.875, 213.538 148.712, 213.031 146.528 C 212.113 142.569, 214.424 128, 215.970 128 C 221.391 128, 222.160 156.051, 216.905 162.110 C 215.857 163.318, 215 164.875, 215 165.571 C 215 166.267, 214.741 167.661, 214.424 168.668 C 213.941 170.207, 214.049 170.180, 215.100 168.500 C 215.788 167.400, 217.566 165.375, 219.050 164 C 220.535 162.625, 222.789 159.588, 224.059 157.250 C 227.818 150.332, 229.492 151.753, 227.530 160.195 C 225.848 167.428, 225.559 167.842, 220.627 170.082 C 217.502 171.501, 217.051 171.961, 218.769 171.978 C 220.603 171.996, 220.940 172.431, 220.527 174.250 C 217.877 185.920, 217.595 185.120, 224.240 184.795 C 230.287 184.500, 230.287 184.500, 231.581 180.104 C 235.959 165.231, 234.272 115.807, 229.449 117.658 C 228.652 117.964, 228 117.716, 228 117.107 C 228 116.498, 228.562 116.113, 229.250 116.250 C 230.633 116.527, 230.448 113.308, 228.836 109.069 C 228.299 107.656, 227.859 106.275, 227.858 106 C 227.858 105.725, 227.161 104.731, 226.311 103.791 C 225.460 102.851, 224.442 100.601, 224.048 98.791 C 223.654 96.981, 222.807 95.612, 222.166 95.750 C 221.525 95.887, 220.979 95.212, 220.954 94.250 C 220.928 93.287, 219.786 91.600, 218.415 90.500 C 213.187 86.306, 209.491 82.232, 209.252 80.402 C 208.320 73.243, 207.621 70.407, 206.632 69.765 C 205.998 69.354, 205.940 69.010, 206.500 68.984 C 207.050 68.958, 206.626 68.276, 205.559 67.468 C 204.145 66.399, 204.009 65.983, 205.059 65.937 C 205.851 65.902, 205.488 65.466, 204.250 64.969 C 203.012 64.471, 202 63.573, 202 62.973 C 202 62.373, 201.550 62.160, 201 62.500 C 200.450 62.840, 200 62.594, 200 61.954 C 200 61.203, 198.610 60.923, 196.084 61.163 C 193.890 61.373, 192.416 61.136, 192.731 60.626 C 193.065 60.085, 189.888 60.010, 184.897 60.440 C 180.279 60.839, 176.344 61.596, 176.153 62.124 C 175.937 62.721, 175.370 62.731, 174.653 62.149 C 173.012 60.819, 164.015 60.268, 163.930 61.493 C 163.891 62.047, 163.536 61.679, 163.141 60.676 C 162.745 59.673, 162.057 58.998, 161.610 59.176 C 161.163 59.354, 160.146 57.475, 159.350 55 C 156.263 45.406, 153.344 39.583, 150.180 36.702 C 149.453 36.041, 148.124 34.722, 147.226 33.771 C 145.993 32.467, 145.400 32.344, 144.811 33.271 C 144.265 34.130, 144.026 33.974, 144.015 32.750 C 144.007 31.788, 143.248 31, 142.329 31 C 141.410 31, 139.801 30.225, 138.755 29.278 C 137.454 28.101, 136.955 27.982, 137.176 28.903 C 137.354 29.644, 136.825 30.453, 136 30.701 C 134.953 31.016, 134.862 30.895, 135.697 30.300 C 138.472 28.324, 134.184 26.430, 124.780 25.479 C 123.285 25.327, 119.454 24.901, 116.268 24.531 C 113.082 24.161, 110.255 24.065, 109.987 24.317 M 99.998 52.789 C 100 65.078, 100 65.078, 108.750 64.789 C 122.569 64.333, 122.567 41.789, 108.748 41 C 99.996 40.500, 99.996 40.500, 99.998 52.789 M 147.079 56.750 C 147.020 57.676, 143.903 58, 135.061 58 C 124.558 58, 115.962 74.697, 122.917 81.587 C 130.421 89.021, 151.101 80.455, 150.889 70 C 150.711 61.254, 150.309 58, 149.406 58 C 148.724 58, 147.940 57.438, 147.662 56.750 C 147.259 55.750, 147.142 55.750, 147.079 56.750 M 94.495 92.224 C 94.499 105.858, 94.320 107.501, 92.821 107.513 C 90.116 107.533, 89.787 108.557, 91.087 112.895 C 92.134 116.390, 92.536 116.805, 93.848 115.743 C 95.074 114.751, 95.232 114.752, 94.633 115.750 C 94.063 116.699, 95.460 117, 100.441 117 C 105.605 117, 107 117.319, 107 118.500 C 107 119.325, 107.450 120, 108 120 C 109.683 120, 109.157 117.347, 105.064 105.190 C 100.030 90.236, 99.682 88.288, 101.818 87.042 C 102.743 86.502, 102.964 86.047, 102.309 86.030 C 101.654 86.014, 100.826 86.472, 100.470 87.049 C 99.392 88.793, 97 86.050, 97 83.069 C 97 81.591, 96.435 79.610, 95.745 78.665 C 94.717 77.261, 94.490 79.725, 94.495 92.224 M 28.306 94.745 C 26.715 96.708, 26.440 97.660, 27.306 98.210 C 28.198 98.778, 28.169 98.973, 27.191 98.985 C 26.471 98.993, 26.160 99.450, 26.500 100 C 26.840 100.550, 26.612 101, 25.994 101 C 25.245 101, 24.975 103.167, 25.185 107.498 C 25.358 111.072, 25.886 113.997, 26.357 113.998 C 26.828 113.999, 26.975 114.623, 26.682 115.385 C 26.390 116.147, 26.776 117.663, 27.540 118.754 C 28.304 119.845, 28.645 121.021, 28.298 121.369 C 27.951 121.716, 28.417 122, 29.333 122 C 30.250 122, 30.889 122.338, 30.754 122.750 C 30.002 125.039, 33.473 132.110, 35.135 131.675 C 36.108 131.421, 37.147 131.727, 37.443 132.356 C 37.739 132.985, 37.742 132.523, 37.449 131.330 C 35.959 125.262, 36.013 125.004, 38.807 124.882 C 40.288 124.816, 41.950 124.865, 42.500 124.989 C 45.762 125.725, 56.002 125.358, 56.015 124.505 C 56.024 123.952, 56.467 124.175, 57 125 C 57.862 126.333, 57.971 126.333, 57.982 125 C 57.993 123.765, 59.410 123.558, 65.998 123.826 C 73.744 124.142, 78.303 129.923, 72.750 132.388 C 72.063 132.694, 72.969 132.770, 74.764 132.557 C 78.088 132.163, 82.150 134.671, 80.170 135.895 C 79.186 136.504, 78.066 150.006, 79 150.002 C 79.275 150, 79.500 157.762, 79.500 167.249 C 79.500 184.378, 79.516 184.502, 81.750 184.820 C 84 185.139, 84 185.139, 84 154.570 C 84 129.208, 83.764 124, 82.617 124 C 81.856 124, 81.030 122.937, 80.781 121.637 C 80.425 119.774, 80.698 119.370, 82.072 119.729 C 85.657 120.666, 88.404 116.254, 86.960 111.880 C 85.680 108, 85.680 108, 58.340 108 C 28.144 108, 30.392 109.040, 30.779 95.250 C 30.888 91.360, 31.027 91.388, 28.306 94.745 M 86 135.020 C 86 146.039, 86 146.039, 107.750 145.770 C 126.501 145.537, 129.447 145.293, 129.113 144 C 127.849 139.095, 127.946 138.128, 129.888 136.319 C 131.896 134.448, 135.798 133.200, 146.750 130.925 C 165.680 126.993, 153.688 124, 119 124 C 86 124, 86 124, 86 135.020 M 31.882 136.750 C 31.816 137.162, 31.816 137.838, 31.882 138.250 C 31.947 138.662, 31.550 139, 31 139 C 30.450 139, 30 139.513, 30 140.140 C 30 140.767, 29.212 141.915, 28.250 142.692 C 26.649 143.983, 26.714 144.056, 29 143.547 C 31.500 142.989, 31.500 142.989, 29.030 144.245 C 20.761 148.446, 16.674 158.794, 19.510 168.345 C 20.352 171.180, 21.032 173.613, 21.020 173.750 C 20.801 176.443, 21.198 177.138, 22.641 176.584 C 24.014 176.057, 24.076 176.204, 23.019 177.477 C 22.086 178.602, 22.064 179, 22.937 179 C 23.586 179, 23.840 179.450, 23.500 180 C 23.160 180.550, 23.359 181, 23.941 181 C 24.523 181, 25 181.702, 25 182.559 C 25 183.416, 25.450 183.840, 26 183.500 C 26.550 183.160, 27 183.285, 27 183.777 C 27 184.269, 28.800 184.743, 31 184.829 C 35 184.986, 35 184.986, 35 160.493 C 35 138.745, 33.441 126.874, 31.882 136.750 M 86 166.359 C 86 184.718, 86 184.718, 93.750 184.868 C 101.496 185.017, 112.395 181.306, 112.554 178.464 C 112.608 177.504, 117.506 167.607, 124.290 154.750 C 127.852 148, 127.852 148, 106.926 148 C 86 148, 86 148, 86 166.359 M 143 148.639 C 143 148.991, 144.350 151.473, 146 154.154 C 147.650 156.836, 149.014 159.361, 149.032 159.765 C 149.272 165.308, 152 163.402, 152 157.691 C 152 151.812, 151.772 151, 150.122 151 C 149.090 151, 147.685 150.325, 147 149.500 C 145.763 148.010, 143 147.415, 143 148.639 M 154.156 160.472 C 154.516 170.233, 156.491 174.793, 159.806 173.521 C 160.925 173.091, 161.091 173.576, 160.564 175.736 C 159.272 181.032, 159.443 182.426, 161.434 182.828 C 165.167 183.580, 166 180.475, 166 165.809 C 166 152, 166 152, 161.750 151.923 C 159.412 151.881, 156.670 151.690, 155.656 151.498 C 153.952 151.176, 153.838 151.855, 154.156 160.472 M 133.125 160.094 C 131.268 162.794, 128.006 166.984, 125.875 169.405 C 123.744 171.826, 122 174.075, 122 174.403 C 122 174.732, 121.100 175.900, 120 177 C 113.658 183.342, 116.767 185, 135 185 C 150.361 185, 160.755 177.838, 151.205 173.833 C 150.644 173.598, 137.892 157.457, 136.597 155.342 C 136.544 155.255, 134.981 157.393, 133.125 160.094" stroke="none" fill="#304c7f" fill-rule="evenodd"/></svg>