<svg xmlns="http://www.w3.org/2000/svg" width="100%" height="820" viewBox="0 0 1715 820" version="1.1"><path d="M 448 410 L 448 820 858 820 L 1268 820 1268 410 L 1268 0 858 0 L 448 0 448 410 " stroke="none" fill="#20162d" fill-rule="evenodd"/><path d="M 780 98.450 C 764.186 102.915, 750.144 111.839, 736.863 125.863 C 711.006 153.166, 698.627 189.119, 693.885 250.687 C 692.176 272.869, 693.282 323.258, 695.932 344 C 699.723 373.665, 705.219 401.223, 711.960 424.364 C 713.699 430.331, 714.972 435.361, 714.791 435.543 C 714.609 435.724, 710.751 437.437, 706.216 439.350 C 672.488 453.575, 641.676 483.515, 621.161 522 C 604.097 554.011, 593.294 590.700, 582.444 653.500 C 576.373 688.637, 577.701 698.233, 589.468 704.238 C 592.952 706.016, 594.719 706.198, 603.968 705.734 C 624.493 704.702, 667.345 695.819, 696.355 686.581 L 707.211 683.124 726.855 689.979 C 776.499 707.300, 829.120 729.047, 832.467 733.625 C 833.661 735.257, 834.899 735.260, 855.115 733.689 C 880.249 731.736, 933.173 727.512, 951 726.038 C 978.066 723.798, 1068.323 716.677, 1092 714.913 C 1113.069 713.343, 1112.436 713.596, 1112.802 706.606 C 1113.127 700.408, 1112.012 698, 1108.815 698 C 1107.064 698, 1107.169 697.587, 1109.890 693.750 C 1113.272 688.982, 1115.375 681.036, 1137.622 589 C 1139.550 581.025, 1144.923 559.102, 1149.563 540.283 C 1154.204 521.464, 1158 504.034, 1158 501.549 C 1158 497.965, 1157.395 496.357, 1155.073 493.766 C 1152.184 490.542, 1152.041 490.503, 1144.012 490.710 C 1139.537 490.826, 1124.767 491.829, 1111.188 492.941 C 1097.610 494.052, 1074.800 495.873, 1060.500 496.988 C 1046.200 498.104, 1032.885 499.231, 1030.911 499.494 C 1027.390 499.963, 1027.177 499.785, 1019.577 490.035 C 1003.499 469.409, 981.428 450.923, 960.500 440.554 C 942.528 431.649, 931.736 428.600, 907.149 425.476 C 888.260 423.077, 879.625 419.625, 871.040 411.040 C 858.436 398.436, 853.027 379.136, 853.008 346.697 L 853 332.893 858.383 326.197 C 873.765 307.059, 885.029 283.387, 890.026 259.694 C 900.951 207.900, 887.374 161.333, 856.855 145.927 C 851.726 143.338, 851 142.609, 851 140.051 C 851 135.197, 849.501 132.676, 842.003 124.923 C 838.055 120.840, 833.268 115.628, 831.365 113.339 C 826.707 107.738, 818.678 102.361, 810.584 99.423 C 805.138 97.446, 802.122 97.016, 794.205 97.089 C 788.867 97.139, 782.475 97.751, 780 98.450 " stroke="none" fill="#d0774b" fill-rule="evenodd"/><path d="M 778 103.311 C 764.231 107.552, 753.376 114.416, 741.469 126.410 C 718.398 149.650, 704.995 183.252, 699.524 231.567 C 693.604 283.832, 696.897 343.399, 708.604 395.819 C 711.965 410.869, 717.859 432.259, 718.945 433.345 C 719.808 434.208, 725.315 433.179, 746 428.288 C 768.816 422.894, 779.948 412.205, 785.876 390 C 788.819 378.977, 789.334 368.001, 788.011 344.500 L 786.829 323.500 780.065 317.306 C 776.345 313.900, 771.566 308.838, 769.445 306.056 C 765.859 301.354, 763 299.580, 763 302.056 C 763 303.948, 754.483 307.047, 751.127 306.375 C 746.482 305.446, 740.441 298.326, 738.431 291.412 C 735.296 280.627, 737.953 264.937, 744.006 258.494 C 745.704 256.686, 745.811 255.752, 744.977 249.982 C 743.709 241.212, 743.759 219.880, 745.068 210.467 C 748.536 185.533, 758.462 164.908, 772.231 154.028 C 777.412 149.933, 777.962 149.132, 777.980 145.654 C 778.006 140.622, 780.423 136.692, 785.115 134.055 C 789.013 131.865, 815.988 126.447, 829.500 125.142 L 836.500 124.466 829.027 116.677 C 823.372 110.783, 819.741 107.993, 814.099 105.204 C 807.108 101.749, 805.985 101.503, 796.072 101.260 C 787.355 101.047, 784.184 101.407, 778 103.311 " stroke="none" fill="#3e0c1d" fill-rule="evenodd"/><path d="M 808 132.428 C 798.925 134.195, 790.375 135.998, 789 136.435 C 785.038 137.694, 782 141.053, 782 144.174 C 782 145.728, 782.169 147, 782.376 147 C 782.582 147, 785.249 145.895, 788.301 144.546 C 798.192 140.171, 808.617 138.674, 824.943 139.285 C 832.949 139.584, 840.986 140.293, 842.802 140.860 C 845.516 141.707, 846.212 141.612, 846.704 140.328 C 847.709 137.709, 845.657 133.685, 842.089 131.281 C 837.370 128.101, 828.730 128.391, 808 132.428 " stroke="none" fill="#d57796" fill-rule="evenodd"/><path d="M 810 143.118 C 776.422 146.963, 756.060 168.430, 749.408 207 C 747.688 216.970, 747.146 238.865, 748.404 247.563 L 749.136 252.625 755.409 252.625 L 761.682 252.625 763.424 246.063 C 764.382 242.453, 766.545 236.905, 768.232 233.732 C 771.914 226.806, 781.335 216.293, 788.808 210.772 C 799.067 203.194, 815.577 196.955, 828.500 195.774 L 831.500 195.500 831.251 186 C 830.853 170.816, 825.757 144.730, 822.827 142.872 C 821.316 141.914, 820.354 141.933, 810 143.118 " stroke="none" fill="#3e0c1d" fill-rule="evenodd"/><path d="M 828 143.119 C 828 143.336, 828.467 145.085, 829.039 147.007 C 831.470 155.183, 833.983 169.636, 835.100 181.854 L 836.297 194.965 839.899 195.518 C 855.129 197.856, 861.721 200.300, 870.258 206.773 C 876.156 211.245, 883.411 220.541, 886.630 227.750 C 887.920 230.637, 889.273 233, 889.637 233 C 890.832 233, 889.194 206.684, 887.489 198.500 C 881.606 170.245, 866.144 151.089, 844.722 145.514 C 838.762 143.963, 828 142.422, 828 143.119 " stroke="none" fill="#3e0c1d" fill-rule="evenodd"/><path d="M 824.500 199.995 C 792.766 205.660, 766 231.015, 766 255.409 C 766 258.419, 765.607 261.125, 765.128 261.421 C 764.648 261.718, 762.852 260.619, 761.137 258.980 C 759.422 257.341, 757.002 256.002, 755.759 256.004 C 751.871 256.010, 747.612 259.459, 744.548 265.084 C 742.095 269.586, 741.527 271.943, 741.186 279.052 C 740.838 286.288, 741.120 288.408, 743.020 292.825 C 747.722 303.754, 754.346 305.613, 761.121 297.903 L 764.742 293.783 770.331 300.789 C 781.957 315.360, 794.166 325.415, 809.500 333.049 C 821.141 338.844, 828.036 340.449, 834.791 338.935 C 841.130 337.514, 844.767 335.073, 851.888 327.460 C 866.141 312.224, 878.526 288.659, 885.024 264.412 C 888.070 253.044, 888.441 247.269, 886.588 240.036 C 881.839 221.500, 869.612 207.596, 853.195 202.066 C 846.090 199.672, 832.004 198.656, 824.500 199.995 " stroke="none" fill="#e8bfab" fill-rule="evenodd"/><path d="M 751.701 295.632 C 751.316 296.018, 751 297.190, 751 298.236 C 751 299.638, 751.593 300.055, 753.250 299.820 C 754.721 299.611, 755.500 298.812, 755.500 297.514 C 755.500 295.530, 753.028 294.306, 751.701 295.632 " stroke="none" fill="white" fill-rule="evenodd"/><path d="M 791.602 339.250 C 792.971 359.240, 792.564 378.699, 790.594 387.500 C 787.010 403.510, 778.177 417.882, 768.401 423.611 C 765.980 425.029, 764 426.549, 764 426.989 C 764 428.338, 776.771 432.987, 784.851 434.580 C 790.345 435.663, 798.556 436.062, 814 435.995 C 825.825 435.944, 836.400 435.769, 837.500 435.606 C 838.600 435.444, 842.650 434.980, 846.500 434.576 C 856.990 433.476, 883 426.354, 883 424.582 C 883 424.367, 880.611 422.843, 877.691 421.195 C 866.566 414.916, 856.569 400.081, 852.627 384 C 850.514 375.380, 849.039 360.836, 849.017 348.417 C 849.008 342.871, 848.776 338.109, 848.503 337.836 C 848.229 337.562, 845.389 338.635, 842.190 340.220 C 830.455 346.037, 814.627 342.737, 797.320 330.867 C 795.021 329.290, 792.620 328, 791.986 328 C 791.136 328, 791.035 330.970, 791.602 339.250 " stroke="none" fill="#e8bfab" fill-rule="evenodd"/><path d="M 881.194 429.701 C 862.702 437.336, 838.029 440.622, 806.109 439.701 C 784.362 439.074, 776.589 437.627, 764.846 432.018 L 758.226 428.855 752.863 430.464 C 749.913 431.349, 741.425 433.376, 734 434.968 C 713.220 439.424, 697.013 446.435, 680.947 457.919 C 647.024 482.169, 622.081 519.127, 605.641 569.500 C 595.873 599.428, 582.854 663.057, 582.621 682 C 582.533 689.192, 582.876 691.129, 584.853 694.590 C 589.559 702.831, 596.013 703.973, 618.500 700.541 C 652.954 695.283, 691.826 685.136, 723 673.263 C 744.427 665.103, 787.274 644.753, 789.064 641.887 C 789.374 641.391, 789.017 637.500, 788.272 633.242 C 787.526 628.984, 786.597 621.225, 786.208 616 L 785.500 606.500 776.500 606.174 C 758.668 605.528, 729.611 609.384, 706.423 615.473 C 683.517 621.487, 657.123 632.306, 637.912 643.557 C 630.123 648.118, 627 649.008, 627 646.666 C 627 645.106, 645.148 634.601, 657.925 628.765 L 666.798 624.712 673.299 611.106 C 687.173 582.070, 696.674 550.858, 700.498 521.750 C 700.902 518.680, 701.611 517, 702.502 517 C 704.774 517, 704.869 518.092, 703.433 527.752 C 699.702 552.848, 690.732 582.714, 679.651 606.940 C 676.018 614.882, 673.192 621.525, 673.369 621.703 C 673.547 621.881, 676.799 620.855, 680.596 619.423 C 706.892 609.506, 738.634 603.483, 770.718 602.323 L 787.935 601.699 788.926 604.304 L 789.916 606.909 796.999 604.500 C 812.542 599.214, 837.367 595.519, 852.868 596.184 L 860.237 596.500 868.957 560.778 C 879 519.642, 879.979 517.303, 889.033 512.830 C 894.120 510.317, 896.412 509.980, 922 507.988 C 1004.764 501.545, 1021.145 500.188, 1021.595 499.738 C 1022.551 498.782, 1009.621 483.392, 999.551 473.500 C 973.861 448.264, 944.756 433.810, 912 430.019 C 906.775 429.414, 900.250 428.448, 897.500 427.872 C 894.750 427.297, 891.825 426.701, 891 426.548 C 890.175 426.396, 885.762 427.814, 881.194 429.701 " stroke="none" fill="white" fill-rule="evenodd"/><path d="M 1137.500 494.684 C 1130.447 495.297, 1085.794 498.876, 1040 502.499 C 935.293 510.782, 895.364 514.055, 893.268 514.527 C 890.409 515.170, 884.289 520.531, 882.570 523.898 C 881.839 525.329, 875.747 549, 869.032 576.500 C 862.317 604, 852.154 645.494, 846.449 668.708 C 837.797 703.908, 836.243 711.397, 837.085 713.815 C 838.973 719.231, 840.197 719.363, 867.582 717.092 C 881.287 715.955, 912.525 713.449, 937 711.522 C 961.475 709.595, 995.675 706.882, 1013 705.493 C 1030.325 704.104, 1055.975 702.057, 1070 700.943 C 1084.025 699.830, 1096.882 698.479, 1098.572 697.941 C 1101.707 696.942, 1106.944 692.099, 1108.781 688.500 C 1109.723 686.653, 1118.010 653.869, 1129.970 604.672 C 1140.379 561.854, 1146.257 537.823, 1150.592 520.363 C 1157.029 494.435, 1156.322 493.048, 1137.500 494.684 " stroke="none" fill="#dd9ebe" fill-rule="evenodd"/><path d="M 827.500 601.505 C 816.556 602.939, 803.914 605.938, 795.439 609.109 C 789.175 611.453, 789.207 611.329, 791.050 626.091 C 792.643 638.843, 792.755 639, 800.319 639 C 811.332 639, 831.261 645.348, 841.196 652.021 C 843.538 653.593, 845.598 654.735, 845.774 654.559 C 846.330 654.003, 857.830 606.644, 858.173 603.500 L 858.500 600.500 848 600.347 C 842.225 600.262, 833 600.783, 827.500 601.505 " stroke="none" fill="#e8bfab" fill-rule="evenodd"/><path d="M 790.500 645.742 C 782.596 650.928, 749.162 666.952, 732.250 673.659 C 722.763 677.421, 715 680.750, 715 681.056 C 715 681.361, 721.188 683.781, 728.750 686.432 C 762.744 698.351, 796.362 711.585, 818.722 721.849 C 824.895 724.682, 830.182 727, 830.472 727 C 830.763 727, 831 725.901, 831 724.557 C 831 723.213, 831.912 721.474, 833.027 720.693 C 834.732 719.499, 834.891 718.844, 834.027 716.572 C 833.462 715.086, 833 712.437, 833 710.685 C 833.001 708.148, 842.752 666.218, 844.495 661.257 C 845.205 659.235, 841.077 656.117, 831.500 651.440 C 820.732 646.182, 808.917 642.978, 800.590 643.059 C 795.763 643.105, 793.670 643.662, 790.500 645.742 " stroke="none" fill="#542e41" fill-rule="evenodd"/><path d="M 1065 705.044 C 1006.963 709.783, 979.608 711.987, 953 714.069 C 938.975 715.167, 916.475 716.947, 903 718.026 C 889.525 719.105, 869.275 720.693, 858 721.555 C 846.725 722.417, 836.938 723.306, 836.250 723.530 C 835.563 723.754, 835 725.061, 835 726.433 C 835 730.844, 837.712 731.380, 853.414 730.078 C 861.161 729.435, 872.675 728.489, 879 727.975 C 885.325 727.461, 896.125 726.579, 903 726.015 C 909.875 725.450, 938.450 723.194, 966.500 721 C 1014.533 717.244, 1025.897 716.335, 1054 714.006 C 1060.325 713.482, 1075.175 712.326, 1087 711.436 C 1098.825 710.547, 1108.883 709.454, 1109.351 709.008 C 1109.819 708.562, 1109.896 706.803, 1109.522 705.099 C 1108.680 701.268, 1111.195 701.271, 1065 705.044" stroke="none" fill="#dd9ebe" fill-rule="evenodd"/></svg>